<svg width="280" height="80" viewBox="0 0 280 80" fill="none" xmlns="http://www.w3.org/2000/svg">
<!-- C logo (orange) -->
<path d="M15.5645 56.1305C7.28387 56.1305 0 48.9999 0 40.8343V40.7577C0 31.8637 6.82384 25.0398 15.8712 24.9248C22.235 24.8098 25.7619 27.6083 28.6371 30.6752L28.9055 30.9819L24.3435 35.6973L24.0368 35.2756C21.8516 32.4387 19.2448 31.1353 15.7945 31.1353C10.9258 31.1353 6.6705 35.5823 6.6705 40.6427V40.7577C6.6705 45.5497 11.0025 49.8817 15.7945 49.8817C20.2798 49.8817 22.005 47.9649 24.0368 45.703L24.4585 45.2047L29.0588 49.8817L28.7522 50.1884C25.8769 53.3319 22.6567 56.1305 15.5645 56.1305Z" fill="#FF8300"/>
<!-- H logo (green) -->
<path d="M57.6193 55.5938H50.9872V42.9429H38.5662V55.5938H32.0107V25.4232H38.5662V36.7324H50.9872V25.4232H57.6193V55.5938Z" fill="#80BC00"/>
<!-- G logo (blue) -->
<path d="M76.7491 56.1305C67.7785 56.1305 60.7629 49.3066 60.7629 40.6043V40.5276C60.7629 32.0553 68.0468 24.9248 76.7108 24.9248C83.3813 24.9248 86.2948 27.685 89.0934 30.3302L89.8218 31.0203L85.2981 35.6589L84.9914 35.2756C82.5379 32.247 80.4677 31.2503 76.5191 31.2503C72.2255 31.2503 67.3951 35.1989 67.3951 40.4893V40.566C67.3951 45.7797 71.6504 49.8817 77.0942 49.8817C80.1611 49.8817 81.9629 48.7699 83.4196 47.5432L83.458 45.358H77.4392L77.5159 39.6459H89.7835V50.0734L89.6684 50.1884C87.0616 52.9486 84.1864 56.1305 76.7491 56.1305Z" fill="#00A7E1"/>
<!-- Registered trademark symbol -->
<path d="M90.8569 53.1402C90.8569 51.6451 92.0453 50.4183 93.5788 50.4183C95.1122 50.4183 96.2623 51.6451 96.2623 53.1019C96.2623 54.5586 95.0739 55.8237 93.5405 55.8237C92.007 55.8237 90.8569 54.6353 90.8569 53.1402ZM95.994 53.1402C95.994 51.7984 94.9589 50.6867 93.5788 50.6867C92.1987 50.6867 91.1636 51.7984 91.1636 53.1402C91.1636 54.482 92.1987 55.5554 93.5788 55.5554C94.9589 55.5554 95.994 54.482 95.994 53.1402ZM92.5054 51.6451H93.7705C94.1538 51.6451 94.4222 51.7601 94.6139 51.9518C94.7672 52.1051 94.8439 52.2968 94.8439 52.5268C94.8439 52.9869 94.5756 53.2552 94.1922 53.3702L94.9589 54.4436H94.3072L93.6171 53.4469H93.0421V54.4436H92.5054C92.5054 54.482 92.5054 51.6451 92.5054 51.6451ZM93.7321 53.0252C94.0772 53.0252 94.3072 52.8719 94.3072 52.5652C94.3072 52.2968 94.1155 52.1051 93.7321 52.1051H93.0421V52.9869C93.0421 53.0252 93.7321 53.0252 93.7321 53.0252Z" fill="#3D3935"/>
<!-- Unified Design text -->
<text x="103" y="43" font-family="Inter, sans-serif" font-size="24" font-weight="500" fill="#3D3935" dominant-baseline="middle">Unified Design</text>
</svg>
