<svg width="200" height="60" viewBox="0 0 200 60" fill="none" xmlns="http://www.w3.org/2000/svg">
<path d="M50.9651 16.3151C50.6219 16.8171 50.2787 17.2354 49.7639 17.6537C49.3349 18.0721 48.7343 18.4904 48.1337 18.7414C47.5331 19.0761 46.8467 19.3271 46.1603 19.4944C45.3881 19.6617 44.6159 19.7454 43.7579 19.7454C42.2993 19.7454 40.9265 19.4944 39.7253 18.9924C38.524 18.4904 37.4087 17.8211 36.5507 16.9007C35.6927 16.0641 35.0062 14.9764 34.4914 13.8051C33.9766 12.6337 33.7192 11.295 33.7192 9.8727C33.7192 8.45036 33.9766 7.1117 34.4914 5.94036C35.0062 4.76903 35.6926 3.68134 36.6364 2.84467C37.4944 2.008 38.6099 1.255 39.8111 0.752998C41.0123 0.250996 42.3851 0 43.7579 0C44.4443 0 45.1307 0.0836568 45.8171 0.250991C46.5035 0.418325 47.1041 0.585669 47.7047 0.83667C48.3053 1.08767 48.8201 1.42234 49.3349 1.75701C49.8497 2.09168 50.1929 2.51002 50.5361 3.01202L48.9059 4.18335C48.7343 3.84868 48.4769 3.59768 48.1337 3.26301C47.7905 2.92834 47.3615 2.67734 46.9325 2.42634C46.5035 2.17534 45.9887 2.00802 45.4739 1.84068C44.9591 1.67335 44.3585 1.58967 43.7579 1.58967C42.4709 1.58967 41.3555 1.84068 40.4117 2.25902C39.3821 2.67735 38.6098 3.263 37.9234 4.01601C37.237 4.76901 36.7223 5.60569 36.3791 6.60969C36.0359 7.61369 35.8642 8.61771 35.8642 9.70538C35.8642 10.7931 36.0359 11.8807 36.3791 12.801C36.7223 13.805 37.3228 14.6417 38.0092 15.3947C38.6956 16.1477 39.5536 16.7334 40.4974 17.1517C41.527 17.5701 42.5567 17.8211 43.8437 17.8211C44.9591 17.8211 45.9887 17.5701 47.0183 17.1517C48.0479 16.7334 48.8201 15.9804 49.5065 15.0601L50.9651 16.3151Z" fill="#00A7E1"/>
<path d="M52.6812 0.585648H54.6546V8.70133H65.1222V0.585648H67.0956V19.4107H65.1222V10.4583H54.6546V19.4107H52.6812V0.585648Z" fill="#00A7E1"/>
<path d="M84.6846 4.01614C83.9982 3.3468 83.2261 2.76114 82.2823 2.42647C81.3385 2.00813 80.3088 1.84081 79.1076 1.84081C77.9064 1.84081 76.791 2.0918 75.7614 2.51014C74.7318 2.92847 73.9596 3.51415 73.2732 4.26715C72.5868 5.02016 72.072 5.85683 71.643 6.86083C71.2998 7.86484 71.0424 8.86883 71.0424 9.9565C71.0424 11.0442 71.214 12.1319 71.643 13.0522C71.9862 14.0562 72.5868 14.8929 73.2732 15.6459C73.9596 16.3989 74.8176 16.9845 75.7614 17.4029C76.791 17.8212 77.8206 18.0722 79.1076 18.0722C80.223 18.0722 81.1668 17.9885 82.1106 17.7375C83.0544 17.4865 83.7408 17.2355 84.3414 16.9009V11.2115H79.8799V9.53816H86.3149V17.9885C85.2853 18.5742 84.1699 19.0762 82.8829 19.4109C81.6817 19.7456 80.3946 19.8292 79.1076 19.8292C77.649 19.8292 76.2762 19.5782 75.075 19.0762C73.8738 18.5742 72.7584 17.9049 71.9004 16.9845C71.0424 16.1479 70.356 15.0602 69.8412 13.8889C69.3264 12.7175 69.069 11.3788 69.069 9.9565C69.069 8.53416 69.3264 7.1955 69.8412 6.02416C70.356 4.85283 71.0424 3.76514 71.9862 2.92847C72.8442 2.0918 73.9597 1.3388 75.1609 0.836799C76.3621 0.334797 77.7348 0.0838013 79.1934 0.0838013C80.7378 0.0838013 82.1107 0.334792 83.2261 0.753127C84.3415 1.17146 85.3711 1.84081 86.1433 2.59381L84.6846 4.01614Z" fill="#00A7E1"/>
<path d="M41.5274 46.0168C41.5274 47.0208 41.699 48.0248 41.9564 48.9452C42.2996 49.9492 42.7286 50.7859 43.3292 51.6225C43.9298 52.3755 44.702 53.0449 45.6458 53.5469C46.5896 54.0489 47.705 54.2999 48.992 54.2999C50.279 54.2999 51.3944 54.0489 52.3382 53.5469C53.282 53.0449 54.0542 52.4592 54.6548 51.6225C55.2554 50.8695 55.7702 49.9492 56.0276 48.9452C56.3708 47.9412 56.4566 46.9372 56.4566 46.0168C56.4566 45.0128 56.285 44.0925 56.0276 43.0885C55.7702 42.0845 55.2554 41.2478 54.6548 40.4948C54.0542 39.7418 53.282 39.0725 52.3382 38.6541C51.3944 38.1521 50.279 37.9011 48.992 37.9011C47.705 37.9011 46.5896 38.1521 45.6458 38.6541C44.702 39.1561 43.9298 39.7418 43.3292 40.4948C42.7286 41.2478 42.2138 42.1681 41.9564 43.0885C41.699 44.0925 41.5274 45.0128 41.5274 46.0168ZM34.9208 46.0168C34.9208 44.0088 35.264 42.1681 36.0362 40.5785C36.8084 38.9051 37.7522 37.5665 39.0392 36.3951C40.3262 35.2238 41.7848 34.3034 43.5008 33.7178C45.2168 33.0484 47.1044 32.7974 48.992 32.7974C50.9654 32.7974 52.7672 33.1321 54.4832 33.7178C56.1992 34.3871 57.7436 35.2238 58.9448 36.3951C60.2318 37.5665 61.1756 38.9888 61.9478 40.5785C62.72 42.2518 63.0632 44.0088 63.0632 46.0168C63.0632 48.0248 62.72 49.8655 61.9478 51.5388C61.1756 53.2122 60.2318 54.6345 58.9448 55.8059C57.6578 56.9772 56.1992 57.8975 54.4832 58.5669C52.7672 59.2362 50.8796 59.5709 48.992 59.5709C47.0186 59.5709 45.2168 59.2362 43.5008 58.5669C41.7848 57.8975 40.2404 56.9772 39.0392 55.8059C37.7522 54.6345 36.8084 53.2122 36.0362 51.5388C35.264 49.8655 34.9208 48.0248 34.9208 46.0168Z" fill="#0075C9"/>
<path d="M66.2378 33.4668H72.4154V37.5664H72.5012C73.1018 36.3114 74.0456 35.1401 75.5042 34.2198C76.9628 33.2158 78.593 32.7974 80.5664 32.7974C82.2824 32.7974 83.741 33.0484 84.9422 33.6341C86.1434 34.2198 87.173 34.9728 87.9452 35.8931C88.7174 36.8134 89.318 37.9011 89.6612 39.1561C90.0044 40.4111 90.1761 41.6661 90.1761 43.0048V58.9015H83.6552V44.7618C83.6552 44.0088 83.5694 43.2558 83.4836 42.4192C83.3978 41.5825 83.1404 40.9131 82.7972 40.2438C82.454 39.5745 81.9392 39.0725 81.3386 38.6541C80.738 38.2358 79.88 37.9848 78.8504 37.9848C77.8208 37.9848 76.877 38.1521 76.1048 38.5705C75.3326 38.9888 74.732 39.4908 74.2172 40.1601C73.7024 40.8295 73.3592 41.4988 73.1018 42.3355C72.8444 43.1721 72.7586 44.0088 72.7586 44.8455V58.8179H66.2378V33.4668Z" fill="#0075C9"/>
<path d="M93.4362 33.4668H99.6138V37.5664H99.6996C100.3 36.3114 101.244 35.1401 102.703 34.2198C104.161 33.2158 105.791 32.7974 107.765 32.7974C109.481 32.7974 110.939 33.0484 112.141 33.6341C113.342 34.2198 114.371 34.9728 115.144 35.8931C115.916 36.8134 116.516 37.9011 116.86 39.1561C117.203 40.4111 117.374 41.6661 117.374 43.0048V58.9015H110.854V44.7618C110.854 44.0088 110.768 43.2558 110.682 42.4192C110.596 41.5825 110.339 40.9131 109.996 40.2438C109.652 39.5745 109.138 39.0725 108.537 38.6541C107.936 38.2358 107.078 37.9848 106.049 37.9848C105.019 37.9848 104.075 38.1521 103.303 38.5705C102.531 38.9888 101.93 39.4908 101.416 40.1601C100.901 40.8295 100.558 41.4988 100.3 42.3355C100.043 43.1721 99.957 44.0088 99.957 44.8455V58.8179H93.4362V33.4668Z" fill="#0075C9"/>
<path d="M140.112 43.5904C140.112 42.7538 140.026 42.0008 139.769 41.2478C139.511 40.4948 139.168 39.8254 138.653 39.3234C138.138 38.7378 137.538 38.3194 136.766 37.9847C135.993 37.6501 135.05 37.4827 134.02 37.4827C132.047 37.4827 130.416 38.0684 129.044 39.2398C127.671 40.4111 126.899 41.8334 126.813 43.6741H140.112V43.5904ZM146.547 46.4351V47.2718C146.547 47.5228 146.547 47.8575 146.461 48.1085H126.641C126.727 49.0288 126.984 49.8655 127.413 50.6185C127.842 51.3715 128.357 52.0408 129.044 52.5428C129.73 53.1285 130.502 53.5468 131.36 53.7978C132.218 54.1325 133.162 54.2998 134.106 54.2998C135.736 54.2998 137.109 54.0488 138.224 53.4631C139.34 52.8775 140.283 52.0408 140.97 51.0368L145.346 54.3835C142.772 57.7302 139.082 59.4872 134.192 59.4872C132.132 59.4872 130.331 59.1525 128.615 58.5668C126.899 57.9812 125.44 57.0608 124.239 55.9732C122.952 54.8855 122.008 53.4631 121.322 51.7898C120.635 50.1165 120.292 48.2758 120.292 46.1841C120.292 44.1761 120.635 42.2518 121.322 40.5784C122.008 38.9051 122.952 37.4827 124.239 36.3114C125.44 35.1401 126.899 34.2197 128.615 33.5504C130.331 32.8811 132.132 32.5464 134.106 32.5464C135.908 32.5464 137.624 32.7974 139.082 33.3831C140.627 33.9687 141.914 34.8054 143.029 35.9767C144.144 37.1481 145.002 38.5704 145.689 40.2438C146.289 42.1681 146.547 44.1761 146.547 46.4351Z" fill="#0075C9"/>
<path d="M168.511 40.4948C167.997 39.8254 167.224 39.2397 166.195 38.7377C165.165 38.2357 164.136 37.9847 163.106 37.9847C161.905 37.9847 160.875 38.2357 159.931 38.7377C158.988 39.2397 158.301 39.8254 157.701 40.5784C157.1 41.3314 156.671 42.2518 156.414 43.1721C156.156 44.1761 155.985 45.0965 155.985 46.1005C155.985 47.1045 156.156 48.0248 156.414 49.0288C156.757 50.0328 157.186 50.8695 157.786 51.6225C158.387 52.3755 159.159 53.0448 160.103 53.4631C161.047 53.9651 162.076 54.2161 163.363 54.2161C164.393 54.2161 165.423 54.0488 166.366 53.6305C167.396 53.2122 168.168 52.7102 168.769 51.9571L172.801 55.9732C171.686 57.0608 170.313 57.9812 168.683 58.5668C166.967 59.1525 165.165 59.4872 163.192 59.4872C161.304 59.4872 159.417 59.1525 157.701 58.5668C155.985 57.9812 154.44 57.0608 153.239 55.8895C151.952 54.7181 150.922 53.2958 150.236 51.6225C149.464 49.9491 149.121 48.1085 149.121 45.9331C149.121 43.9251 149.464 42.0008 150.236 40.4111C151.008 38.7377 151.952 37.3154 153.239 36.1441C154.526 34.9728 155.985 34.0524 157.615 33.4667C159.331 32.7974 161.133 32.5464 163.02 32.5464C164.908 32.5464 166.795 32.8811 168.597 33.6341C170.399 34.3034 171.772 35.3074 172.887 36.5624L168.511 40.4948Z" fill="#0075C9"/>
<path d="M175.29 38.4868V26.1041H181.725V33.4668H188.245V38.5705H181.725V50.3675C181.725 51.4552 181.896 52.4592 182.325 53.2122C182.754 53.9652 183.698 54.2999 185.157 54.2999C185.586 54.2999 186.1 54.2162 186.529 54.1326C187.044 54.0489 187.473 53.8816 187.902 53.7142L188.16 58.6506C187.559 58.9016 186.873 59.0689 186.1 59.1526C185.328 59.2363 184.556 59.3199 183.784 59.3199C182.068 59.3199 180.609 59.0689 179.58 58.5669C178.55 58.0649 177.606 57.4792 177.006 56.6426C176.405 55.8059 175.976 54.8855 175.719 53.7979C175.461 52.7102 175.375 51.5389 175.375 50.3675V38.4868H175.29Z" fill="#0075C9"/>
<path d="M92.2351 17.6538H181.725L181.81 19.4108H92.2351V17.6538Z" fill="#00A7E1"/>
<path d="M28.6572 29.7018C25.8258 26.7734 23.166 25.9368 20.5062 25.9368C12.5268 25.9368 7.2072 31.8771 7.2072 39.4071C7.2072 47.4392 12.5268 53.4632 20.5062 53.4632C23.595 53.4632 26.598 52.0409 29.172 48.8615L34.8348 52.7939C31.317 57.4792 26.0832 59.4872 20.4204 59.4872C8.4942 59.4872 0 51.6225 0 39.8255C0 27.6938 8.4942 19.8291 20.4204 19.8291C25.6542 19.8291 30.1158 21.5024 33.9768 25.7694L28.6572 29.7018Z" fill="#0075C9"/>
<path d="M190.905 55.1367C190.905 54.551 190.991 53.9653 191.248 53.3796C191.506 52.8776 191.849 52.3756 192.192 51.9573C192.621 51.539 193.05 51.2043 193.651 51.037C194.166 50.786 194.766 50.7023 195.453 50.7023C196.139 50.7023 196.654 50.786 197.254 51.037C197.769 51.288 198.284 51.6226 198.713 51.9573C199.142 52.3756 199.485 52.794 199.657 53.3796C199.914 53.8816 200 54.4673 200 55.1367C200 55.7223 199.914 56.308 199.657 56.8937C199.399 57.3957 199.056 57.8977 198.713 58.316C198.284 58.7343 197.855 59.069 197.254 59.2363C196.74 59.4873 196.139 59.571 195.453 59.571C194.766 59.571 194.251 59.4873 193.651 59.2363C193.136 58.9853 192.621 58.7343 192.192 58.316C191.763 57.8977 191.42 57.4793 191.248 56.8937C190.991 56.308 190.905 55.7223 190.905 55.1367ZM191.592 55.1367C191.592 55.6387 191.677 56.1407 191.935 56.559C192.106 56.9773 192.45 57.3957 192.793 57.7303C193.136 58.065 193.565 58.316 193.994 58.567C194.423 58.7343 194.938 58.9017 195.538 58.9017C196.139 58.9017 196.568 58.818 197.083 58.567C197.512 58.3997 197.941 58.065 198.284 57.7303C198.627 57.3957 198.885 56.9773 199.142 56.559C199.314 56.1407 199.485 55.6387 199.485 55.1367C199.485 54.6346 199.399 54.1327 199.142 53.6307C198.97 53.2123 198.627 52.794 198.284 52.4593C197.941 52.1247 197.512 51.8737 197.083 51.6227C196.654 51.4553 196.139 51.288 195.538 51.288C194.938 51.288 194.509 51.3717 193.994 51.6227C193.565 51.79 193.136 52.1247 192.793 52.4593C192.45 52.794 192.192 53.2123 191.935 53.6307C191.677 54.1327 191.592 54.6346 191.592 55.1367ZM193.651 52.6266H195.453C195.71 52.6266 195.967 52.6266 196.139 52.7103C196.396 52.794 196.568 52.8776 196.74 52.9613C196.911 53.045 197.083 53.2123 197.169 53.3796C197.254 53.547 197.34 53.798 197.34 54.049C197.34 54.3837 197.254 54.7183 196.997 54.9693C196.825 55.2203 196.482 55.3877 196.139 55.3877L197.512 57.563H196.396L195.195 55.4713H194.509V57.563H193.565V52.6266H193.651ZM195.367 54.802C195.624 54.802 195.882 54.7183 196.139 54.6346C196.396 54.551 196.482 54.3 196.482 54.049C196.482 53.798 196.396 53.6306 196.139 53.4633C195.882 53.3796 195.71 53.296 195.453 53.296H194.595V54.7183H195.367V54.802Z" fill="#0075C9"/>
</svg>
