<svg width="146" height="36" viewBox="0 0 146 36" fill="none" xmlns="http://www.w3.org/2000/svg">
<path d="M116.367 0C118.48 0 120.327 0.418825 121.907 1.25647C123.487 2.09413 124.705 3.27445 125.562 4.79745C126.438 6.30141 126.876 8.04335 126.876 10.0232C126.876 11.9841 126.438 13.726 125.562 15.249C124.705 16.772 123.477 17.9524 121.878 18.79C120.298 19.6277 118.461 20.0465 116.367 20.0465H108.857V0H116.367ZM116.053 15.8202C117.899 15.8202 119.337 15.3157 120.365 14.3067C121.393 13.2977 121.907 11.8699 121.907 10.0232C121.907 8.17661 121.393 6.73928 120.365 5.71125C119.337 4.68322 117.899 4.16921 116.053 4.16921H113.74V15.8202H116.053Z" fill="#009CBA"/>
<path d="M98.2903 3.91221V7.96719H104.83V11.7366H98.2903V16.1343H105.686V20.0465H93.4072V0H105.686V3.91221H98.2903Z" fill="#009CBA"/>
<path d="M89.8684 0V20.0465H84.9853V0H89.8684Z" fill="#009CBA"/>
<path d="M82.4188 0V3.91221H74.2517V8.13853H80.3628V11.9365H74.2517V20.0465H69.3686V0H82.4188Z" fill="#009CBA"/>
<path d="M65.8299 0V20.0465H60.9467V0H65.8299Z" fill="#009CBA"/>
<path d="M57.4071 20.0465H52.524L44.3569 7.68163V20.0465H39.4738V0H44.3569L52.524 12.422V0H57.4071V20.0465Z" fill="#009CBA"/>
<path d="M24.1368 0V11.9936C24.1368 13.193 24.4319 14.1163 25.0221 14.7636C25.6122 15.4109 26.4784 15.7345 27.6207 15.7345C28.7629 15.7345 29.6387 15.4109 30.2479 14.7636C30.8571 14.1163 31.1617 13.193 31.1617 11.9936V0H36.0448V11.9651C36.0448 13.7546 35.664 15.2681 34.9025 16.5055C34.141 17.743 33.113 18.6758 31.8185 19.304C30.5429 19.9323 29.1151 20.2464 27.535 20.2464C25.9549 20.2464 24.5366 19.9418 23.2801 19.3326C22.0427 18.7043 21.0623 17.7715 20.3388 16.5341C19.6154 15.2776 19.2537 13.7546 19.2537 11.9651V0H24.1368Z" fill="#009CBA"/>
<path d="M145.346 27.1539V35.9112H144.458V28.9181L141.336 35.9112H140.689L137.566 28.9435V35.9112H136.678V27.1539H137.617L141.006 34.7436L144.395 27.1539H145.346Z" fill="#111828"/>
<path d="M126.651 27.7631V31.0756H130.014V31.8117H126.651V35.175H130.395V35.9111H125.762V27.0269H130.395V27.7631H126.651Z" fill="#111828"/>
<path d="M119.827 27.0397V27.7758H117.365V35.9112H116.476V27.7758H114.001V27.0397H119.827Z" fill="#111828"/>
<path d="M105.531 36C104.947 36 104.431 35.8985 103.982 35.6954C103.542 35.4923 103.195 35.2089 102.942 34.8451C102.688 34.4812 102.552 34.0751 102.535 33.6267H103.475C103.517 34.0582 103.707 34.4389 104.046 34.7689C104.384 35.0904 104.879 35.2512 105.531 35.2512C106.131 35.2512 106.605 35.0989 106.952 34.7943C107.308 34.4812 107.485 34.0878 107.485 33.614C107.485 33.2332 107.388 32.9286 107.193 32.7002C106.999 32.4633 106.758 32.2898 106.47 32.1798C106.182 32.0614 105.785 31.9344 105.277 31.7991C104.685 31.6383 104.215 31.4818 103.868 31.3295C103.521 31.1772 103.225 30.9403 102.98 30.6187C102.734 30.2972 102.612 29.8615 102.612 29.3115C102.612 28.8546 102.73 28.4485 102.967 28.0931C103.204 27.7293 103.538 27.4458 103.97 27.2428C104.401 27.0397 104.896 26.9382 105.455 26.9382C106.275 26.9382 106.935 27.1412 107.434 27.5474C107.942 27.945 108.234 28.4612 108.31 29.0957H107.346C107.286 28.7319 107.088 28.4104 106.749 28.1312C106.411 27.8435 105.954 27.6997 105.378 27.6997C104.845 27.6997 104.401 27.8435 104.046 28.1312C103.69 28.4104 103.513 28.7954 103.513 29.2861C103.513 29.6584 103.61 29.9588 103.805 30.1872C103.999 30.4157 104.24 30.5891 104.528 30.7076C104.824 30.826 105.222 30.953 105.721 31.0883C106.296 31.2491 106.762 31.4099 107.117 31.5706C107.473 31.7229 107.773 31.9598 108.018 32.2814C108.264 32.6029 108.386 33.0344 108.386 33.5759C108.386 33.9905 108.276 34.3839 108.056 34.7562C107.836 35.1285 107.511 35.4289 107.079 35.6573C106.648 35.8858 106.131 36 105.531 36Z" fill="#111828"/>
<path d="M97.007 27.0397L94.1641 32.4591V35.9112H93.2757V32.4591L90.4073 27.0397H91.41L93.7199 31.6468L96.0171 27.0397H97.007Z" fill="#111828"/>
<path d="M82.0384 36C81.4545 36 80.9384 35.8985 80.49 35.6954C80.05 35.4923 79.7031 35.2089 79.4493 34.8451C79.1954 34.4812 79.0601 34.0751 79.0431 33.6267H79.9823C80.0246 34.0582 80.215 34.4389 80.5534 34.7689C80.8919 35.0904 81.3869 35.2512 82.0384 35.2512C82.6391 35.2512 83.1129 35.0989 83.4598 34.7943C83.8152 34.4812 83.9929 34.0878 83.9929 33.614C83.9929 33.2332 83.8956 32.9286 83.701 32.7002C83.5064 32.4633 83.2652 32.2898 82.9775 32.1798C82.6899 32.0614 82.2922 31.9344 81.7845 31.7991C81.1923 31.6383 80.7227 31.4818 80.3758 31.3295C80.0288 31.1772 79.7327 30.9403 79.4873 30.6187C79.242 30.2972 79.1193 29.8615 79.1193 29.3115C79.1193 28.8546 79.2377 28.4485 79.4746 28.0931C79.7116 27.7293 80.0458 27.4458 80.4773 27.2428C80.9088 27.0397 81.4038 26.9382 81.9622 26.9382C82.7829 26.9382 83.4429 27.1412 83.9421 27.5474C84.4498 27.945 84.7417 28.4612 84.8178 29.0957H83.8533C83.794 28.7319 83.5952 28.4104 83.2568 28.1312C82.9183 27.8435 82.4614 27.6997 81.8861 27.6997C81.353 27.6997 80.9088 27.8435 80.5534 28.1312C80.1981 28.4104 80.0204 28.7954 80.0204 29.2861C80.0204 29.6584 80.1177 29.9588 80.3123 30.1872C80.5069 30.4157 80.748 30.5891 81.0357 30.7076C81.3319 30.826 81.7295 30.953 82.2287 31.0883C82.8041 31.2491 83.2695 31.4099 83.6248 31.5706C83.9802 31.7229 84.2806 31.9598 84.5259 32.2814C84.7713 32.6029 84.894 33.0344 84.894 33.5759C84.894 33.9905 84.784 34.3839 84.564 34.7562C84.344 35.1285 84.0183 35.4289 83.5867 35.6573C83.1552 35.8858 82.6391 36 82.0384 36Z" fill="#111828"/>
<path d="M64.7872 35.9112H63.8988L58.9871 28.4485V35.9112H58.0987V27.0397H58.9871L63.8988 34.4897V27.0397H64.7872V35.9112Z" fill="#111828"/>
<path d="M50.6187 29.6288C50.3648 29.045 49.9756 28.5881 49.451 28.2581C48.9349 27.9197 48.3257 27.7504 47.6234 27.7504C46.9635 27.7504 46.3712 27.9027 45.8466 28.2073C45.322 28.5119 44.9074 28.9477 44.6028 29.5146C44.2982 30.073 44.1459 30.7245 44.1459 31.4691C44.1459 32.2137 44.2982 32.8694 44.6028 33.4363C44.9074 34.0032 45.322 34.4389 45.8466 34.7435C46.3712 35.0481 46.9635 35.2004 47.6234 35.2004C48.2411 35.2004 48.7953 35.0693 49.286 34.807C49.7852 34.5362 50.1829 34.1555 50.4791 33.6647C50.7837 33.1655 50.9571 32.586 50.9994 31.926H47.2681V31.2026H51.9386V31.8498C51.8963 32.6283 51.6848 33.3348 51.304 33.9693C50.9233 34.5955 50.4114 35.0904 49.7683 35.4543C49.1337 35.8181 48.4188 36 47.6234 36C46.8027 36 46.0581 35.8096 45.3897 35.4289C44.7213 35.0397 44.1924 34.5024 43.8032 33.817C43.4225 33.1232 43.2321 32.3406 43.2321 31.4691C43.2321 30.5976 43.4225 29.8192 43.8032 29.1338C44.1924 28.44 44.7213 27.9027 45.3897 27.522C46.0581 27.1328 46.8027 26.9382 47.6234 26.9382C48.5711 26.9382 49.4003 27.1751 50.111 27.6489C50.8217 28.1227 51.3379 28.7827 51.6594 29.6288H50.6187Z" fill="#111828"/>
<path d="M37.0937 27.0397V35.9112H36.2052V27.0397H37.0937Z" fill="#111828"/>
<path d="M27.1002 36C26.5163 36 26.0002 35.8985 25.5518 35.6954C25.1118 35.4923 24.7649 35.2089 24.5111 34.8451C24.2572 34.4812 24.1218 34.0751 24.1049 33.6267H25.0441C25.0864 34.0582 25.2768 34.4389 25.6152 34.7689C25.9537 35.0904 26.4486 35.2512 27.1002 35.2512C27.7009 35.2512 28.1747 35.0989 28.5216 34.7943C28.877 34.4812 29.0547 34.0878 29.0547 33.614C29.0547 33.2332 28.9574 32.9286 28.7628 32.7002C28.5682 32.4633 28.327 32.2898 28.0393 32.1798C27.7517 32.0614 27.354 31.9344 26.8463 31.7991C26.254 31.6383 25.7844 31.4818 25.4375 31.3295C25.0906 31.1772 24.7945 30.9403 24.5491 30.6187C24.3038 30.2972 24.1811 29.8615 24.1811 29.3115C24.1811 28.8546 24.2995 28.4485 24.5364 28.0931C24.7733 27.7293 25.1076 27.4458 25.5391 27.2428C25.9706 27.0397 26.4656 26.9382 27.024 26.9382C27.8447 26.9382 28.5047 27.1412 29.0039 27.5474C29.5116 27.945 29.8035 28.4612 29.8796 29.0957H28.9151C28.8558 28.7319 28.657 28.4104 28.3185 28.1312C27.9801 27.8435 27.5232 27.6997 26.9479 27.6997C26.4148 27.6997 25.9706 27.8435 25.6152 28.1312C25.2599 28.4104 25.0822 28.7954 25.0822 29.2861C25.0822 29.6584 25.1795 29.9588 25.3741 30.1872C25.5687 30.4157 25.8098 30.5891 26.0975 30.7076C26.3936 30.826 26.7913 30.953 27.2905 31.0883C27.8659 31.2491 28.3312 31.4099 28.6866 31.5706C29.042 31.7229 29.3423 31.9598 29.5877 32.2814C29.8331 32.6029 29.9558 33.0344 29.9558 33.5759C29.9558 33.9905 29.8458 34.3839 29.6258 34.7562C29.4058 35.1285 29.0801 35.4289 28.6485 35.6573C28.217 35.8858 27.7009 36 27.1002 36Z" fill="#111828"/>
<path d="M14.3822 27.7631V31.0756H17.7455V31.8117H14.3822V35.175H18.1262V35.9111H13.4938V27.0269H18.1262V27.7631H14.3822Z" fill="#111828"/>
<path d="M2.62718 27.0397C3.60866 27.0397 4.45054 27.2174 5.15282 27.5728C5.85509 27.9281 6.39237 28.44 6.76466 29.1085C7.13695 29.7769 7.32309 30.5722 7.32309 31.4945C7.32309 32.4083 7.13695 33.1994 6.76466 33.8678C6.39237 34.5278 5.85509 35.0355 5.15282 35.3908C4.45054 35.7377 3.60866 35.9112 2.62718 35.9112H0V27.0397H2.62718ZM2.62718 35.1751C3.8625 35.1751 4.80168 34.8536 5.44473 34.2105C6.09623 33.559 6.42198 32.6537 6.42198 31.4945C6.42198 30.3269 6.09623 29.4173 5.44473 28.7658C4.80168 28.1058 3.8625 27.7758 2.62718 27.7758H0.888417V35.1751H2.62718Z" fill="#111828"/>
</svg>
