<svg width="200" height="20" viewBox="0 0 200 20" fill="none" xmlns="http://www.w3.org/2000/svg">
<path d="M36.8184 15.6999H33.4144V0.138916H28.6905V19.2428H36.8184V15.6999Z" fill="#00A7E0"/>
<path d="M41.2643 18.4786C40.0139 17.8534 39.1108 16.9503 38.4856 15.6999C37.8604 14.5884 37.4436 13.199 37.4436 11.5318C37.4436 10.0035 37.7909 8.61408 38.4856 7.36365C39.1108 6.25215 40.1528 5.21012 41.4033 4.58491C42.6537 3.95969 43.9041 3.54288 45.4325 3.54288C46.9608 3.54288 48.3501 3.82075 49.4616 4.58491C50.7121 5.21012 51.6152 6.11321 52.3793 7.36365C53.0045 8.47514 53.4213 10.0035 53.4213 11.5318C53.4213 13.0601 53.074 14.4494 52.3793 15.6999C51.6152 16.8114 50.7121 17.8534 49.4616 18.4786C48.2112 19.1038 46.9608 19.5206 45.4325 19.5206C43.7652 19.4512 42.3758 19.2428 41.2643 18.4786ZM47.586 14.4494C48.2112 13.8242 48.628 12.7822 48.628 11.6707C48.628 10.5592 48.3501 9.51718 47.7249 8.89196C47.0997 8.26675 46.3355 7.84994 45.4325 7.84994C44.5294 7.84994 43.7652 8.19728 43.14 8.89196C42.5148 9.51718 42.2369 10.5592 42.2369 11.6707C42.2369 12.9211 42.5148 13.8242 43.14 14.4494C43.7652 15.0747 44.5294 15.4915 45.4325 15.4915C46.1966 15.422 46.9608 15.0747 47.586 14.4494Z" fill="#00A7E0"/>
<path d="M55.297 7.29419C55.9222 6.18269 56.8253 5.14066 58.0757 4.51545C59.1872 3.89023 60.5766 3.47342 62.1049 3.47342C63.9805 3.47342 65.6478 3.95969 66.8982 5.00171C68.1486 6.04374 69.0517 7.43312 69.3991 9.30877H64.3279C63.9805 8.19728 63.0774 7.50259 61.8965 7.50259C60.9934 7.50259 60.3682 7.84993 59.8819 8.54461C59.3956 9.16983 59.1177 10.2119 59.1177 11.4623C59.1177 12.7127 59.3956 13.6158 59.8819 14.38C60.3682 15.1441 61.1323 15.422 61.8965 15.422C63.1469 15.422 63.9111 14.7968 64.3279 13.6158H69.3991C69.0517 15.422 68.1486 16.8114 66.8982 17.7839C65.6478 18.7565 63.9805 19.3122 62.1049 19.3122C60.5766 19.3122 59.3261 19.0344 58.0757 18.2702C56.9642 17.645 56.0611 16.7419 55.297 15.4915C54.6717 14.38 54.2549 12.9906 54.2549 11.3234C54.3939 10.0035 54.6717 8.61409 55.297 7.29419Z" fill="#00A7E0"/>
<path d="M85.9326 3.89023V19.2428H83.1538C82.1118 19.2428 81.2782 18.3397 81.2782 17.3671V17.2282C80.7919 17.8534 80.1667 18.4786 79.4025 18.8954C78.4994 19.2428 77.5964 19.5207 76.7627 19.5207C75.6512 19.5207 74.4703 19.2428 73.5672 18.7565C72.6641 18.2702 71.8999 17.5061 71.4137 16.464C70.9274 15.422 70.6495 14.3105 70.6495 12.9211V3.9597H75.3039V12.2959C75.3039 13.338 75.5818 14.1021 76.0681 14.7273C76.5543 15.3525 77.3185 15.6304 78.2216 15.6304C79.1247 15.6304 79.8888 15.3525 80.3751 14.7273C80.8614 14.1021 81.1393 13.338 81.1393 12.2959V3.9597H85.9326V3.89023Z" fill="#00A7E0"/>
<path d="M112.331 5.41857C113.442 6.53006 113.998 8.19731 113.998 10.2119V19.1733H109.343V10.8371C109.343 9.79508 109.066 9.03093 108.579 8.54465C108.093 8.05837 107.329 7.78049 106.426 7.78049C105.523 7.78049 104.759 8.05837 104.272 8.54465C103.786 9.03093 103.508 9.79508 103.508 10.8371V19.1733H98.8537V10.8371C98.8537 9.79508 98.5758 9.03093 98.0896 8.54465C97.6033 8.05837 96.8392 7.78049 95.9361 7.78049C95.033 7.78049 94.2688 8.05837 93.7825 8.54465C93.2962 9.03093 93.0184 9.79508 93.0184 10.8371V19.1733H88.364V3.8208H91.1427C92.1847 3.8208 93.0184 4.72388 93.0184 5.69644C93.5047 5.07122 94.1299 4.58495 94.894 4.16814C95.6582 3.8208 96.5613 3.68185 97.5338 3.68185C98.6453 3.68185 99.6873 3.95973 100.59 4.44601C101.494 4.93229 102.258 5.55751 102.744 6.59954C103.23 5.69645 103.994 5.07122 104.898 4.58494C105.801 4.09866 106.773 3.8208 107.954 3.8208C109.621 3.75133 111.15 4.30707 112.331 5.41857Z" fill="#00A7E0"/>
<path d="M118.791 18.826C117.749 18.3397 116.916 17.7145 116.29 16.9503C115.665 16.1862 115.248 15.2831 115.248 14.3105H119.903C119.903 14.7968 120.181 15.3525 120.667 15.5609C121.153 15.8388 121.709 16.0472 122.334 16.0472C122.959 16.0472 123.376 15.9083 123.724 15.6999C124.001 15.422 124.21 15.2136 124.21 14.7968C124.21 14.38 123.932 14.0326 123.585 13.7548C123.098 13.4769 122.473 13.4074 121.292 12.9906C120.181 12.7127 119.278 12.5043 118.513 12.2264C117.749 11.9486 117.124 11.4623 116.638 10.8371C116.151 10.2119 115.874 9.44771 115.874 8.33622C115.874 7.43313 116.151 6.66897 116.638 5.90482C117.124 5.14066 117.749 4.65438 118.791 4.09863C119.833 3.61235 120.806 3.47342 122.195 3.47342C124.071 3.47342 125.599 3.9597 126.78 4.86279C127.892 5.76588 128.586 7.15525 128.656 8.68356H124.349C124.21 8.19728 124.071 7.64152 123.585 7.43311C123.098 7.15524 122.681 6.94685 122.056 6.94685C121.57 6.94685 121.014 7.08578 120.806 7.22472C120.528 7.36365 120.459 7.71099 120.459 8.1278C120.459 8.54461 120.736 8.89195 121.223 9.16983C121.709 9.4477 122.334 9.51717 123.376 9.79504C124.488 10.0729 125.391 10.4203 126.155 10.6981C126.919 10.976 127.544 11.4623 128.031 12.0875C128.517 12.7127 128.934 13.6158 128.934 14.5884C128.934 15.4915 128.656 16.2556 128.17 17.0198C127.683 17.7839 126.919 18.2702 126.016 18.687C125.113 19.0344 124.001 19.3122 122.751 19.3122C120.945 19.4512 119.764 19.2428 118.791 18.826Z" fill="#F58220"/>
<path d="M154.498 5.41857C155.61 6.53006 156.165 8.19731 156.165 10.2119V19.1733H151.511V10.8371C151.511 9.79508 151.233 9.03093 150.747 8.54465C150.26 8.05837 149.496 7.78049 148.593 7.78049C147.69 7.78049 146.926 8.05837 146.44 8.54465C145.953 9.03093 145.676 9.79508 145.676 10.8371V19.1733H141.021V10.8371C141.021 9.79508 140.743 9.03093 140.257 8.54465C139.771 8.05837 139.007 7.78049 138.103 7.78049C137.2 7.78049 136.436 8.05837 135.95 8.54465C135.464 9.03093 135.186 9.79508 135.186 10.8371V19.1733H130.531V3.8208H133.31C134.352 3.8208 135.186 4.72388 135.186 5.69644C135.672 5.07122 136.297 4.58495 137.061 4.16814C137.826 3.8208 138.729 3.68185 139.701 3.68185C140.813 3.68185 141.855 3.95973 142.758 4.44601C143.661 4.93229 144.425 5.55751 144.911 6.59954C145.398 5.69645 146.162 5.07122 147.065 4.58494C147.968 4.09866 148.941 3.8208 150.122 3.8208C151.789 3.75133 153.317 4.30707 154.498 5.41857Z" fill="#F58220"/>
<path d="M158.388 7.29419C159.014 6.18269 159.778 5.14066 160.82 4.51545C161.862 3.89023 162.973 3.47342 164.224 3.47342C165.335 3.47342 166.238 3.75129 167.002 4.09863C167.905 4.44597 168.392 5.14066 168.878 5.90482V3.75129H173.532V19.1038H170.754C169.712 19.1038 168.878 18.2007 168.878 17.2282V17.0892C168.392 17.8534 167.767 18.3397 167.002 18.8954C166.099 19.2428 165.196 19.5206 164.224 19.5206C162.973 19.5206 161.792 19.1733 160.82 18.4786C159.778 17.8534 159.014 16.9503 158.388 15.6999C157.763 14.5884 157.485 13.0601 157.485 11.5318C157.485 10.0034 157.902 8.61409 158.388 7.29419ZM168.044 8.82249C167.419 8.19727 166.655 7.78046 165.613 7.78046C164.571 7.78046 163.807 8.1278 163.182 8.82249C162.556 9.51717 162.14 10.4897 162.14 11.6012C162.14 12.7127 162.487 13.7548 163.182 14.38C163.876 15.0052 164.571 15.422 165.613 15.422C166.655 15.422 167.419 15.0747 168.044 14.38C168.67 13.7548 169.086 12.7127 169.086 11.6012C169.017 10.3508 168.809 9.4477 168.044 8.82249Z" fill="#F58220"/>
<path d="M194.651 7.84998V3.89026H191.872V2.08409C191.872 1.04207 190.969 0.208435 189.996 0.208435H187.218V4.02921H185.967H185.759C184.717 4.02921 183.466 4.16815 182.702 4.51549C181.799 5.00177 181.035 5.62699 180.549 6.53008V5.90486C180.549 4.86284 179.646 4.02921 178.673 4.02921H175.894V19.3818H180.549V12.296C180.549 10.7677 180.896 10.2814 181.452 9.65616C182.494 8.12785 184.717 7.98892 185.273 7.98892H187.148V14.1021C187.148 15.9778 187.635 17.3672 188.538 18.1313C189.441 18.8955 190.83 19.3818 192.567 19.3818H194.581V15.3526H193.331C192.845 15.3526 192.428 15.2136 192.219 15.0747C191.942 14.7968 191.872 14.5884 191.872 14.0327V7.84998H194.651Z" fill="#F58220"/>
<path d="M5.69642 0.138916H0V19.2428H5.69642V0.138916Z" fill="#00A7E0"/>
<path d="M7.5721 12.2959V19.2428H13.2685C13.2685 19.2428 14.3105 13.2685 7.5721 12.2959Z" fill="#00A7E0"/>
<path d="M18.0619 5.83535C19.6733 5.83535 20.9795 4.52906 20.9795 2.91767C20.9795 1.30628 19.6733 0 18.0619 0C16.4505 0 15.1442 1.30628 15.1442 2.91767C15.1442 4.52906 16.4505 5.83535 18.0619 5.83535Z" fill="#F58220"/>
<path d="M21.3963 19.2428C21.3963 19.2428 21.3963 18.6176 21.2574 15.2136C20.9795 11.6707 18.9649 8.75306 15.9083 7.22475C14.2411 6.32166 13.2685 4.72387 13.2685 2.91769V0.277893H7.57208V5.69643C7.57208 8.1973 9.10039 10.4898 11.3929 11.5318C11.6707 11.6707 11.8791 11.8097 12.0181 11.8791C14.0327 13.4074 15.2136 15.6999 15.2136 18.2008V19.2428H21.3963Z" fill="#F58220"/>
<path d="M7.57208 12.2959V19.2428H13.2685C13.2685 19.2428 14.3105 13.2685 7.57208 12.2959Z" fill="#00A7E0"/>
<path d="M198.958 15.5609C199.236 15.6999 199.444 15.9083 199.722 16.3251C200 16.7419 200 16.9503 200 17.3671C200 17.7145 199.861 18.1313 199.722 18.4092C199.583 18.687 199.375 18.8954 198.958 19.1733C198.68 19.3122 198.333 19.4512 197.916 19.4512C197.499 19.4512 197.152 19.3122 196.874 19.1733C196.596 19.0344 196.388 18.826 196.11 18.4092C195.971 18.1313 195.832 17.7839 195.832 17.3671C195.832 17.0198 195.971 16.603 196.11 16.3251C196.249 16.0472 196.457 15.8388 196.874 15.5609C197.152 15.422 197.499 15.2831 197.916 15.2831C198.333 15.2831 198.541 15.2831 198.958 15.5609ZM199.027 18.4786C199.305 18.2007 199.375 17.7145 199.375 17.3671C199.375 16.8809 199.236 16.464 199.027 16.2556C198.819 16.0472 198.402 15.7693 197.916 15.7693C197.43 15.7693 197.013 15.9083 196.804 16.2556C196.527 16.5335 196.457 17.0198 196.457 17.3671C196.457 17.8534 196.596 18.2702 196.804 18.4786C197.013 18.687 197.43 18.9649 197.916 18.9649C198.263 18.9649 198.68 18.7565 199.027 18.4786ZM198.541 17.2282C198.402 17.3671 198.263 17.3671 198.194 17.5061L198.819 18.4092H198.263L197.777 17.5061H197.569V18.4092H197.221V16.2556H198.124C198.402 16.2556 198.472 16.3946 198.611 16.3946C198.75 16.3946 198.888 16.6724 198.888 16.8808C198.68 16.9503 198.68 17.2282 198.541 17.2282ZM197.569 17.0892H198.055C198.194 17.0892 198.194 17.0893 198.333 16.9503C198.472 16.8114 198.472 16.8114 198.472 16.6724C198.472 16.5335 198.472 16.5335 198.333 16.3946C198.194 16.3946 198.194 16.2556 198.055 16.2556H197.569V17.0892Z" fill="#231F20"/>
</svg>
