<svg width="200" height="52" viewBox="0 0 200 52" fill="none" xmlns="http://www.w3.org/2000/svg">
<path d="M169.143 38.986V50.5245C169.143 51.3112 169.755 51.923 170.542 51.923H178.934C179.72 51.923 180.332 51.3112 180.332 50.5245V34.2657C180.332 33.2168 179.196 32.5175 178.234 33.042L169.843 37.7622C169.406 38.0245 169.143 38.4615 169.143 38.986ZM180.332 12.8497V1.39861C180.332 0.611893 179.72 0 178.934 0H170.542C169.755 0 169.143 0.611893 169.143 1.39861V17.6573C169.143 18.7063 170.28 19.4056 171.241 18.8811L179.633 14.1608C180.07 13.8112 180.332 13.3741 180.332 12.8497ZM183.479 37.1503L193.706 42.9196C194.406 43.2692 195.28 43.0944 195.629 42.3951L199.825 35.3147C200.175 34.6154 200 33.8287 199.301 33.479L184.878 25.3496C183.916 24.8252 182.78 25.5245 182.78 26.5734V36.1014C182.78 36.451 183.042 36.8881 183.479 37.1503ZM165.996 14.5979L155.769 8.82867C155.07 8.47902 154.196 8.65385 153.846 9.35315L149.65 16.4336C149.301 17.1329 149.476 17.9196 150.175 18.2692L164.598 26.3986C165.559 26.9231 166.696 26.2238 166.696 25.1748V15.6468C166.783 15.3846 166.521 14.8601 165.996 14.5979ZM189.073 24.1259L199.301 18.3566C200 18.007 200.175 17.1329 199.825 16.521L195.629 9.44057C195.28 8.74127 194.406 8.56644 193.706 8.91609L179.283 17.0454C178.322 17.5699 178.322 18.8811 179.283 19.4056L187.675 24.1259C188.112 24.3881 188.636 24.3881 189.073 24.1259ZM161.801 27.6224L170.192 32.3426C171.154 32.8671 171.154 34.1783 170.192 34.7028L155.769 42.8321C155.07 43.1818 154.196 43.007 153.846 42.3077L149.65 35.2273C149.301 34.528 149.476 33.7413 150.175 33.3916L160.402 27.6224C160.839 27.3601 161.364 27.3601 161.801 27.6224Z" fill="#36A5CE"/>
<path d="M21.9406 36.8006C21.9406 37.6747 21.3287 38.2866 20.4546 38.2866C19.5804 38.2866 18.9686 37.5873 18.9686 36.8006V23.951C18.9686 19.5803 15.5594 15.909 10.9266 15.909C6.2937 15.909 2.97205 19.5803 2.97205 23.951V36.8006C2.97205 37.6747 2.3602 38.2866 1.48608 38.2866C0.611952 38.2866 0 37.5873 0 36.8006V24.388C0 18.6188 4.45813 13.4615 11.0141 13.4615C14.2483 13.4615 18.2692 15.0349 20.4546 18.881C22.6399 14.9475 26.6609 13.4615 29.8952 13.4615C36.4511 13.4615 40.9091 18.6188 40.9091 24.388V36.8006C40.9091 37.6747 40.2973 38.2866 39.4231 38.2866C38.6364 38.2866 37.9371 37.5873 37.9371 36.8006V23.951C37.9371 19.5803 34.7028 15.909 29.9825 15.909C25.2623 15.909 21.9406 19.5803 21.9406 23.951V36.8006Z" fill="#202938"/>
<path d="M57.5175 15.8217C51.9231 15.8217 47.6398 20.3671 47.6398 25.8741C47.6398 31.3811 51.7483 36.014 57.5175 36.014C63.2867 36.014 67.4825 31.2937 67.4825 25.8741C67.4825 20.4545 63.1993 15.8217 57.5175 15.8217ZM57.5175 38.2867C50.2622 38.2867 44.7553 32.7797 44.7553 25.8741C44.7553 18.9685 50.4371 13.549 57.5175 13.549C64.5979 13.549 70.2797 18.9685 70.2797 25.8741C70.2797 32.7797 64.6853 38.2867 57.5175 38.2867Z" fill="#202938"/>
<path d="M95.0175 25.874C95.0175 19.93 90.9091 15.8216 85.5769 15.8216C80.2447 15.8216 76.1364 20.367 76.1364 25.874C76.1364 31.381 80.0699 36.0139 85.5769 36.0139C91.0839 36.0139 95.0175 31.8181 95.0175 25.874ZM97.902 36.8006C97.902 37.6747 97.2902 38.2866 96.4161 38.2866C95.5419 38.2866 94.9301 37.5873 94.9301 36.8006V33.5663C93.7937 35.4894 90.6469 38.374 85.3147 38.374C78.4091 38.374 73.077 32.867 73.077 25.9615C73.077 19.0559 78.4965 13.6363 85.3147 13.6363C90.5595 13.6363 93.7937 16.4335 94.9301 18.3566V7.08034C94.9301 6.29363 95.5419 5.59433 96.4161 5.59433C97.2902 5.59433 97.902 6.29363 97.902 7.08034C97.902 6.99293 97.902 36.8006 97.902 36.8006Z" fill="#202938"/>
<path d="M106.643 36.8008C106.643 37.6749 106.031 38.2868 105.157 38.2868C104.283 38.2868 103.671 37.5875 103.671 36.8008V14.9476C103.671 14.1609 104.283 13.4616 105.157 13.4616C106.031 13.4616 106.643 14.1609 106.643 14.9476V36.8008ZM105.157 6.20639C106.469 6.20639 107.517 7.16793 107.517 8.47912C107.517 9.79031 106.469 10.7519 105.157 10.7519C103.846 10.7519 102.797 9.79031 102.797 8.47912C102.885 7.16793 103.934 6.20639 105.157 6.20639Z" fill="#202938"/>
<path d="M123.951 15.8217C118.357 15.8217 114.073 20.3671 114.073 25.8741C114.073 31.3811 118.182 36.014 123.951 36.014C129.72 36.014 133.916 31.2937 133.916 25.8741C133.916 20.4545 129.633 15.8217 123.951 15.8217ZM123.951 38.2867C116.696 38.2867 111.189 32.7797 111.189 25.8741C111.189 18.9685 116.871 13.549 123.951 13.549C131.031 13.549 136.713 18.9685 136.713 25.8741C136.713 32.7797 131.119 38.2867 123.951 38.2867Z" fill="#202938"/>
</svg>
