<svg width="199" height="38" viewBox="0 0 199 38" fill="none" xmlns="http://www.w3.org/2000/svg">
<path d="M33.1498 13.3407C33.3519 13.6439 33.3519 13.5428 33.5541 13.846C33.9583 14.4524 33.453 13.846 33.453 14.6546C33.6551 16.0695 33.3519 17.0802 33.0487 18.394C32.9477 18.6972 32.9477 18.8994 32.8466 19.2026C32.8466 19.4047 32.8466 19.4047 32.8466 19.6068C33.0487 19.7079 33.2509 19.7079 33.3519 19.5058C33.6551 19.2026 34.0594 18.8994 34.2615 18.6972C34.5647 18.394 34.7669 18.0908 34.969 17.8887C35.1711 17.6866 35.3733 17.6866 35.4743 17.4844C35.6765 17.1812 35.7775 17.1812 35.9797 16.9791C36.3839 16.6759 38.4053 14.4524 38.7085 14.0482C39.0117 13.5428 39.4159 13.0375 39.7191 12.6332C39.9213 12.4311 40.4266 12.229 40.8309 12.4311C40.9319 12.4311 41.1341 12.8354 41.2351 13.0375C41.4373 13.3407 41.5383 13.5428 41.6394 13.9471C41.6394 14.2503 41.8415 14.6546 41.8415 14.9578C41.8415 15.0588 41.6394 15.0588 41.7405 15.1599C41.7405 15.1599 41.7405 15.1599 41.8415 15.1599C41.9426 15.4631 41.8415 15.4631 41.9426 15.7663C41.8415 15.8674 41.9426 15.6652 41.7405 15.7663C41.7405 16.2716 41.6394 17.2823 41.6394 17.7876L41.5383 18.5962C43.0543 17.7876 43.9639 17.3834 45.0757 17.3834C45.9853 17.2823 46.6927 17.6866 47.4002 17.9898H47.1981C47.4002 18.1919 47.4002 18.394 47.6023 18.394C47.6023 18.4951 47.2991 18.4951 47.2991 18.4951C47.2991 18.5962 47.5013 18.4951 47.6023 18.5962C47.2991 18.8994 47.1981 18.293 46.7938 18.394C46.7938 18.4951 46.7938 18.4951 47.097 18.5962C46.7938 18.4951 46.5917 18.4951 46.2885 18.4951C45.3789 18.4951 44.3682 18.8994 43.7618 19.2026C43.8629 19.0004 44.1661 18.8994 44.4693 18.8994C44.3682 18.8994 44.2671 18.7983 44.2671 18.7983C43.4586 19.2026 43.0543 19.4047 42.9533 19.4047C42.8522 19.5058 42.6501 19.6068 42.549 19.7079C42.3469 19.5058 42.2458 19.91 42.2458 19.91C42.2458 19.91 42.1447 19.91 42.0437 19.91C41.9426 20.0111 41.7405 20.0111 41.6394 20.2132C41.5383 20.3143 41.4373 20.5164 41.1341 20.5164C40.8309 20.8196 40.5277 21.2239 40.2245 21.426C40.1234 21.5271 40.1234 21.6282 40.0223 21.8303C39.9213 22.0324 39.8202 22.2346 39.7191 22.2346C40.0223 22.2346 39.7191 22.4367 39.7191 22.7399C39.517 22.7399 39.6181 22.5378 39.517 22.5378C39.517 22.942 39.2138 23.3463 39.1127 23.7506C39.2138 23.9527 39.2138 23.5484 39.3149 23.3463C39.517 23.5484 39.3149 23.9527 39.1127 23.8516C39.3149 24.1548 39.1127 23.9527 39.0117 24.1548C39.0117 24.2559 39.2138 24.458 39.0117 24.5591C38.9106 24.6602 38.8095 24.5591 38.8095 24.5591C38.7085 24.6602 38.6074 24.6602 38.6074 24.6602C38.6074 24.7612 38.8095 24.7612 38.8095 25.0644C38.5063 24.7612 38.7085 25.2666 38.6074 25.3676C38.5063 25.6708 38.3042 25.974 38.2031 26.3783C38.1021 26.3783 38.1021 26.2772 38.001 26.2772C37.8999 26.2772 37.8999 26.5804 37.8999 26.4794C37.8999 26.5804 37.7989 26.5804 37.6978 26.5804C37.6978 26.9847 37.5967 27.1868 37.5967 27.389C37.7989 27.389 37.6978 27.1868 37.7989 27.0858C37.6978 26.9847 37.7989 26.9847 37.8999 26.7826L38.001 26.8836C38.1021 27.0858 37.6978 27.6922 37.5967 27.7932L37.0914 28.8039C36.9903 28.8039 37.0914 28.6018 37.0914 28.6018C36.9903 28.7028 36.8893 28.5007 36.7882 28.6018C36.6871 28.8039 36.6871 28.905 36.5861 29.1071V29.3092C36.3839 29.7135 36.2829 30.1178 36.0807 30.421C36.3839 30.3199 36.3839 29.9156 36.5861 29.7135C36.8893 29.4103 36.7882 28.905 37.1925 28.8039C36.9903 29.006 36.9903 29.3092 36.9903 29.3092C36.9903 29.6124 36.6871 30.0167 36.3839 30.421C36.0807 30.9263 35.8786 31.3306 35.5754 31.8359C35.3733 32.1391 35.1711 32.3412 35.1711 32.5433C35.0701 32.6444 35.0701 32.8465 35.0701 32.9476C34.969 33.1497 34.8679 33.2508 34.7669 33.4529C34.4637 33.6551 34.3626 33.9583 34.1605 34.2615C33.9583 34.4636 33.8573 34.6657 33.5541 35.07C33.3519 35.2721 33.2509 35.4743 33.0487 35.6764C33.8573 35.1711 34.3626 33.9583 35.0701 33.1497C34.969 33.554 34.5647 33.9583 34.4637 34.3625C34.1605 34.6657 33.9583 35.1711 33.453 35.6764C33.2509 35.8785 32.9477 36.2828 32.5434 36.586C32.4423 36.6871 32.3413 36.9903 32.1391 37.0913C32.0381 37.1924 31.937 37.1924 31.8359 37.2935C31.5327 37.3945 31.4317 37.5967 31.2295 37.8999C30.1178 37.5967 29.4103 36.7881 29.3093 35.4743C29.2082 35.1711 29.4103 34.8679 29.4103 34.4636C29.4103 34.3625 29.3093 34.4636 29.3093 34.3625C29.4103 33.554 29.8146 32.7455 30.1178 32.1391C30.3199 31.8359 30.1178 31.5327 30.5221 31.3306C30.6231 31.0274 30.7242 30.9263 30.9263 30.522C31.0274 30.2188 31.1285 30.1178 31.3306 29.8146V29.6124C31.5327 29.4103 31.6338 29.1071 31.8359 28.8039C31.937 28.7028 32.0381 28.2986 32.2402 28.0964C32.2402 28.0964 32.3413 28.0964 32.4423 27.9954C32.9477 27.1868 32.9477 27.0858 33.1498 26.8836C33.6551 26.0751 34.2615 25.0644 34.969 24.357C35.2722 23.9527 35.5754 23.6495 35.8786 23.2452C36.3839 22.7399 36.8893 22.1335 37.3946 21.6282C37.8999 21.1228 38.6074 20.1122 39.0117 19.5058C39.3149 19.1015 39.3149 18.6972 39.4159 17.9898C39.7191 16.878 40.0223 15.8674 40.0223 14.6546C39.7191 14.7556 39.6181 15.261 39.4159 15.4631C39.3149 15.5642 39.2138 15.4631 39.2138 15.5642C39.1127 15.6652 39.0117 15.9684 38.8095 15.9684C38.8095 16.0695 38.7085 16.2716 38.7085 16.3727C38.6074 16.4738 38.4053 16.4738 38.4053 16.5748C38.3042 16.6759 38.3042 16.878 38.2031 16.9791C38.1021 17.0802 37.8999 17.1812 37.7989 17.2823C37.4957 17.5855 37.2935 17.7876 36.9903 18.0908C36.7882 18.394 36.6871 18.394 36.5861 18.7983C36.2829 18.7983 35.9797 19.2026 35.9797 19.2026C35.8786 19.3036 35.8786 19.2026 35.7775 19.2026L35.5754 19.5058C35.5754 19.809 34.7669 20.3143 34.1605 20.7186C33.9583 20.7186 33.8573 20.9207 33.6551 20.9207C32.9477 21.1228 32.3413 20.7186 31.6338 20.4154C31.5327 20.4154 31.5327 20.3143 31.4317 20.4154C31.0274 20.0111 30.9263 19.4047 30.9263 18.6972C30.9263 18.394 31.2295 17.5855 31.3306 17.2823C31.5327 16.1706 32.0381 15.1599 32.1391 13.846C32.2402 12.5322 33.0487 13.0375 33.1498 13.3407ZM44.5703 18.6972L44.8735 18.5962C44.7725 18.394 44.6714 18.5962 44.5703 18.6972ZM43.6607 19.2026C43.6607 19.3036 43.1554 19.5058 42.9533 19.6068C42.8522 19.6068 43.3575 19.3036 43.6607 19.2026ZM42.2458 20.0111C42.1447 20.1122 42.0437 20.2132 41.8415 20.2132C42.0437 20.1122 42.0437 20.0111 42.2458 20.0111ZM41.033 20.8196C41.2351 20.6175 41.3362 20.4154 41.6394 20.3143C41.3362 20.6175 41.033 20.7186 40.8309 21.0218C40.8309 20.9207 40.9319 20.9207 41.033 20.8196ZM39.3149 24.2559C39.3149 24.2559 39.3149 24.1548 39.2138 24.1548C39.2138 24.2559 39.1127 24.458 39.3149 24.2559ZM38.7085 24.9634C38.6074 24.9634 38.6074 25.0644 38.6074 25.2666C38.8095 25.3676 38.9106 24.9634 38.7085 24.9634ZM38.2031 26.2772C38.4053 26.3783 38.2031 26.3783 38.2031 26.4794C38.001 26.4794 38.2031 26.2772 38.2031 26.2772ZM32.3413 29.8146C32.2402 29.9156 32.2402 30.1178 32.1391 30.1178C32.1391 30.3199 32.0381 30.3199 31.937 30.421V30.7242H31.7349C31.6338 31.0274 31.6338 31.4316 31.3306 31.4316C31.4317 31.937 30.7242 32.2401 31.0274 32.6444C31.1285 32.2401 31.2295 32.038 31.3306 31.937C31.2295 32.2402 31.0274 32.4423 31.0274 32.8465C30.9263 33.1497 30.9263 33.4529 30.8253 33.7561C30.7242 33.9583 30.6231 34.0593 30.6231 34.0593C30.5221 34.5647 30.421 35.07 30.421 35.5753C30.421 35.9796 30.5221 36.3839 30.6231 36.6871C31.0274 36.4849 31.5327 35.9796 31.8359 35.7775C31.8359 35.6764 31.937 35.5753 31.8359 35.4743C32.1391 35.3732 32.0381 35.1711 32.1391 34.9689C32.4423 34.5647 32.7455 34.1604 32.9477 33.7561C33.3519 32.9476 34.0594 32.038 34.3626 31.2295C34.3626 31.1284 34.3626 30.9263 34.4637 30.7242C34.5647 30.522 34.8679 30.3199 34.8679 30.1178V29.9156C34.8679 29.6124 35.0701 29.4103 35.1711 29.1071L35.9797 27.1868C36.485 26.0751 37.0914 24.7612 37.4957 23.9527C37.5967 23.6495 38.001 22.942 38.1021 22.7399C38.001 22.942 37.3946 23.3463 37.2935 23.2452C37.2935 23.6495 36.7882 24.1548 36.485 24.2559C36.1818 24.458 35.7775 24.8623 35.9797 24.8623C35.8786 25.1655 35.8786 24.8623 35.6765 24.9634C35.7775 25.3676 35.2722 25.7719 35.0701 25.974C35.0701 25.7719 35.4743 25.6708 35.3733 25.5698C35.0701 25.7719 34.8679 26.4794 34.6658 26.1762C34.6658 26.2772 34.3626 26.2772 34.4637 26.4794H34.6658C34.4637 26.7826 34.2615 26.5804 34.1605 26.7826C34.3626 26.8836 34.3626 26.6815 34.3626 26.7826C34.2615 26.8836 34.1605 27.0858 33.9583 27.0858C33.9583 27.2879 33.7562 27.2879 33.8573 27.389C33.3519 27.49 33.2509 28.3996 33.0487 28.0964L32.2402 29.5114C32.4423 29.5114 32.4423 29.6124 32.3413 29.8146ZM37.5967 27.5911C37.5967 27.5911 37.6978 27.5911 37.6978 27.6922C37.8999 27.389 37.7989 27.49 37.7989 27.1868C37.5967 27.0858 37.5967 27.389 37.5967 27.5911ZM35.4743 32.4423C35.5754 32.5433 35.3733 32.7455 35.3733 32.8465C35.2722 32.6444 35.4743 32.5433 35.4743 32.4423ZM34.8679 26.1762C34.969 26.3783 34.5647 26.3783 34.5647 26.6815C34.4637 26.6815 34.8679 26.2772 34.8679 26.1762ZM34.4637 26.7826C34.4637 26.9847 34.2615 27.0858 34.1605 27.2879C34.2615 27.0858 34.3626 26.8836 34.4637 26.7826ZM34.0594 27.389C34.1605 27.49 34.0594 27.49 34.0594 27.5911C33.9583 27.49 34.0594 27.49 34.0594 27.389ZM32.4423 29.1071C32.6445 28.905 32.9477 28.5007 32.9477 28.0964C32.7455 28.3996 32.5434 28.7028 32.4423 29.1071ZM32.4423 28.2986C32.5434 28.1975 32.7455 27.9954 32.6445 27.8943C32.5434 28.0964 32.4423 28.0964 32.4423 28.2986ZM30.6231 32.5433C31.0274 31.7348 31.6338 30.9263 31.8359 30.0167C31.4317 30.9263 30.8253 31.7348 30.6231 32.5433ZM31.7349 31.3306C31.8359 31.5327 31.5327 31.6337 31.5327 31.8359C31.4317 31.6337 31.7349 31.5327 31.7349 31.3306Z" fill="#EA6852"/>
<path d="M13.745 12.7343C13.8461 13.1386 13.5429 13.5429 13.3408 13.9471C13.2397 14.2503 13.2397 14.5535 13.1386 14.9578C13.1386 15.0589 12.9365 15.6653 12.8354 15.6653C12.8354 15.9685 12.6333 15.9685 12.5322 16.1706C12.5322 16.3727 12.5322 16.5749 12.4312 16.777C13.3408 15.8674 14.2504 14.8567 15.261 13.9471C16.1706 13.1386 17.3834 12.1279 18.5962 11.6226C18.4952 11.6226 18.3941 11.6226 18.293 11.6226C18.3941 11.5215 18.4952 11.5215 18.6973 11.5215C18.4952 11.3194 18.3941 11.5215 18.0909 11.5215C18.192 11.4205 18.293 11.3194 17.9898 11.4205C18.192 11.2183 18.5962 11.1173 18.7984 11.2183C19.0005 11.2183 19.3037 11.5215 19.4048 11.4205C19.3037 11.3194 19.3037 11.3194 19.3037 11.3194C19.6069 11.0162 20.4154 12.0269 20.5165 12.1279C20.8197 12.5322 21.0218 13.2397 20.9208 13.8461C20.8197 14.5535 20.5165 15.261 20.4154 15.9685C20.3144 16.5749 20.0112 17.0802 19.809 17.6866C20.2133 17.3834 20.4154 17.0802 20.7186 16.8781C20.4154 17.2823 19.9101 17.5855 19.708 18.1919C20.1122 17.9898 20.5165 17.4845 20.8197 17.1813C21.0218 16.8781 21.224 16.6759 21.4261 16.4738C21.7293 16.1706 22.0325 15.8674 22.3357 15.5642C22.6389 15.3621 22.74 14.9578 23.0432 14.8567C22.9421 14.7557 23.1442 14.4525 22.9421 14.2503C23.0432 14.1493 23.1442 14.3514 23.2453 14.3514C23.3464 14.2503 23.4474 14.2503 23.5485 14.2503C23.6496 14.2503 23.7506 14.4525 23.8517 14.3514C23.9528 14.3514 24.0538 14.3514 24.1549 14.3514C24.4581 14.4525 24.7613 14.6546 25.0645 14.6546C25.0645 14.7557 25.2666 15.1599 25.2666 14.9578C25.3677 15.261 25.3677 15.4631 25.3677 15.7663C25.3677 16.4738 25.1656 17.1813 24.8624 17.8887C24.6602 18.293 24.5592 18.6973 24.4581 19.2026C24.4581 19.4047 24.357 19.7079 24.5592 19.809C24.6602 19.9101 24.8624 20.0111 24.7613 20.1122C25.4688 20.0111 26.7826 19.2026 27.288 19.0005V19.2026C27.6922 18.8994 27.8944 18.5962 28.3997 18.3941C28.3997 18.3941 28.905 17.9898 28.905 18.0909C29.0061 17.7877 29.0061 18.0909 29.2082 17.7877C29.3093 17.6866 29.3093 17.6866 29.3093 17.5855C29.4104 17.4845 29.4104 17.6866 29.4104 17.6866C29.4104 17.5855 29.5114 17.4845 29.5114 17.3834L29.6125 17.4845C29.7136 17.4845 29.7136 17.2823 29.8146 17.2823C29.9157 17.2823 29.9157 17.1813 30.0168 17.0802C30.1178 16.9791 30.421 16.6759 30.5221 16.6759C30.5221 16.777 30.421 16.777 30.421 16.777C30.5221 16.777 30.8253 16.3727 30.8253 16.3727C31.1285 16.3727 31.2296 15.8674 31.4317 15.7663C31.4317 15.7663 31.3306 15.8674 31.3306 15.9685L31.6338 15.7663C31.6338 16.0695 31.7349 15.7663 31.7349 15.7663L32.1392 15.3621L32.8466 14.7557C33.0488 14.7557 32.8466 14.8567 32.8466 14.9578C33.0488 14.7557 33.1498 14.8567 33.2509 14.6546C33.2509 14.7557 33.2509 14.7557 33.2509 14.8567H33.352C33.453 14.9578 33.453 14.7557 33.5541 14.7557C33.453 14.9578 33.352 14.9578 33.1498 15.0589C33.1498 15.1599 33.1498 15.0589 33.1498 15.1599C33.352 15.261 33.352 15.0589 33.453 14.9578C33.352 15.261 33.0488 15.3621 32.8466 15.6653C32.7456 15.8674 32.7456 16.0695 32.5434 16.2717L31.836 17.0802C31.0274 17.8887 30.1178 18.6973 29.2082 19.4047C28.2986 20.2133 27.288 21.0218 26.0752 21.4261C25.772 21.5271 25.4688 21.6282 25.1656 21.6282C24.7613 21.6282 24.4581 21.5271 24.0538 21.5271C23.6496 21.5271 23.4474 20.9207 23.0432 20.8197C22.9421 20.6175 22.841 20.2133 22.74 19.9101C22.6389 19.6069 22.6389 19.3037 22.6389 18.8994C22.841 18.8994 22.6389 19.1015 22.74 19.2026C22.74 18.8994 22.74 18.5962 22.74 18.1919C22.841 18.0909 22.9421 18.1919 23.0432 17.9898C23.0432 17.8887 22.841 17.8887 22.841 17.9898C22.74 17.8887 22.9421 17.7877 22.841 17.5855C22.6389 17.6866 22.74 17.8887 22.6389 17.9898C22.5378 17.9898 22.5378 17.9898 22.5378 17.8887H22.2346C21.9314 18.0909 21.8304 18.3941 21.5272 18.5962C21.325 18.6973 21.0218 18.7983 21.0218 19.0005C21.0218 19.3037 20.3144 19.5058 20.1122 19.809C19.708 20.2133 19.4048 19.9101 19.3037 20.5165C19.1016 20.3143 19.0005 20.5165 18.7984 20.4154C18.5962 20.4154 18.6973 20.2133 18.3941 20.2133C17.9898 20.1122 17.9898 20.1122 17.7877 19.809C17.5856 19.9101 17.8888 19.9101 17.6866 20.0111C17.5856 19.7079 17.5856 19.4047 17.3834 19.2026C17.1813 19.0005 17.2824 18.7983 17.3834 18.4951C17.5856 17.9898 17.4845 17.3834 17.6866 16.8781C17.7877 17.3834 17.3834 18.1919 17.4845 18.5962C17.6866 18.3941 17.4845 18.293 17.6866 17.8887C17.7877 17.9898 17.5856 18.0909 17.6866 18.293C17.7877 17.7877 17.8888 17.2823 17.9898 16.777C18.0909 16.3727 18.3941 15.9685 18.5962 15.4631C18.6973 15.261 19.1016 13.6439 19.2026 13.6439C19.2026 13.5429 19.3037 13.6439 19.3037 13.6439C19.3037 13.4418 19.4048 13.2397 19.4048 13.0375C19.4048 12.9365 19.1016 12.9365 19.1016 12.9365L19.2026 12.7343C19.0005 12.4311 19.0005 12.8354 18.8994 12.9365C18.6973 12.9365 18.4952 13.2397 18.293 13.2397C18.3941 13.0375 18.6973 13.0375 18.8994 12.7343C18.6973 12.7343 18.5962 13.0375 18.4952 13.0375C18.3941 13.1386 18.192 13.0375 18.0909 13.1386C18.0909 13.1386 17.7877 13.5429 17.7877 13.6439C17.9898 13.5429 18.0909 13.3407 18.192 13.3407C18.0909 13.745 17.3834 13.745 17.3834 14.0482C17.4845 14.3514 16.3728 14.9578 16.1706 15.1599C15.3621 15.8674 14.7557 16.6759 14.0482 17.4845C13.4418 18.0909 12.9365 18.6973 12.3301 19.4047C11.9259 20.0111 11.5216 20.5165 11.0163 21.0218C10.7131 21.325 10.2077 21.1229 9.90452 20.9207C9.39919 20.6175 9.19705 20.3143 9.19705 20.0111C9.19705 19.3037 10.0056 18.4951 9.90452 17.7877C9.80345 17.4845 10.3088 16.777 10.4099 16.5749C10.612 16.0695 10.8141 15.5642 10.9152 15.0589C11.1173 14.3514 11.3195 13.5429 11.6227 12.8354C11.7237 12.5322 11.8248 12.1279 11.9259 11.7237V11.6226C12.0269 11.2183 12.0269 11.2183 11.9259 10.713C11.8248 10.713 11.7237 10.8141 11.6227 10.713C11.4205 10.713 11.5216 10.6119 11.3195 10.6119C10.7131 10.6119 9.60132 10.9151 8.69172 11.2183C6.77146 11.6226 4.85119 12.3301 2.93093 12.8354C3.23413 12.6333 3.3352 12.6333 3.43626 12.5322C3.032 12.5322 2.1224 12.8354 1.61706 12.6333C1.516 12.6333 1.516 12.5322 1.61706 12.4311C1.41493 12.5322 1.01067 12.5322 0.909599 12.3301C1.01067 12.3301 0.808532 12.1279 1.01067 12.1279C0.505333 12.1279 0.3032 11.6226 0 11.3194C0.101067 11.3194 0.202133 11.4205 0.404266 11.6226C0.505333 11.8247 0.707466 11.6226 1.01067 11.6226C1.31386 11.7237 1.71813 11.7237 2.1224 11.7237L2.93093 11.6226L3.13306 11.7237C3.73946 11.5215 4.34586 11.3194 4.85119 11.2183C4.75013 11.1173 5.05333 11.1173 4.85119 11.2183C4.95226 11.2183 5.05333 11.1173 5.25546 11.1173L5.15439 11.0162C5.15439 10.9151 5.25546 11.0162 5.35653 11.1173C5.55866 11.2183 5.25546 10.9151 5.45759 10.9151C5.55866 11.1173 5.65973 11.0162 5.76079 10.9151C6.06399 10.6119 6.06399 10.713 6.06399 10.8141C6.16506 10.8141 6.26612 10.713 6.26612 10.6119C6.46826 10.8141 6.56932 10.713 6.67039 10.6119C6.77146 10.5109 7.27679 10.6119 7.17572 10.5109C7.27679 10.6119 7.47892 10.4098 7.68106 10.5109C7.57999 10.4098 7.68106 10.3087 7.78212 10.4098C7.78212 10.4098 7.68106 10.4098 7.78212 10.5109L7.88319 10.4098C7.57999 10.2077 8.18639 10.4098 8.18639 10.1066C8.28746 10.1066 8.18639 10.2077 8.18639 10.3087C8.79279 10.2077 8.69172 10.0055 9.19705 9.90448C9.39919 9.80342 9.60132 10.0055 9.70239 9.90448C10.0056 9.80342 9.80345 9.70235 10.2077 9.60128C10.5109 9.60128 10.9152 9.50022 11.3195 9.50022C11.6227 9.50022 11.8248 9.60128 12.128 9.60128C12.2291 9.60128 12.2291 9.80342 12.4312 9.90448C12.5322 10.0055 12.5323 10.0055 12.7344 9.90448C13.0376 10.0055 13.3408 10.4098 13.5429 10.8141L13.745 11.2183C13.9472 11.6226 13.8461 12.5322 13.8461 12.4311C13.8461 12.4311 13.745 12.6333 13.745 12.7343ZM13.9472 14.8567C13.8461 15.0589 13.745 15.1599 13.644 15.261C13.4418 15.261 13.8461 14.8567 13.9472 14.8567ZM14.1493 14.5535C14.1493 14.5535 14.2504 14.3514 14.3514 14.3514C14.3514 14.4525 14.1493 14.5535 14.1493 14.5535ZM14.5536 14.1493C14.6546 14.3514 14.4525 14.2503 14.4525 14.3514C14.3514 14.3514 14.4525 14.1493 14.5536 14.1493ZM17.2824 11.9258C17.3834 11.8247 17.3834 11.9258 17.4845 11.9258C17.4845 12.1279 17.1813 12.1279 17.2824 11.9258ZM17.5856 11.8247C17.6866 11.7237 17.8888 11.6226 18.0909 11.5215C17.9898 11.7237 17.7877 11.8247 17.5856 11.8247ZM21.1229 16.3727C21.224 16.2717 21.325 16.2717 21.4261 16.1706C21.5272 16.1706 20.9208 16.6759 21.1229 16.3727ZM22.5378 14.9578C22.4368 14.7557 22.841 14.5535 22.9421 14.5535C22.841 14.7557 22.5378 14.7557 22.5378 14.9578ZM30.421 16.0695C30.5221 16.0695 30.32 16.2717 30.32 16.3727C30.1178 16.2717 30.421 16.1706 30.421 16.0695ZM32.6445 15.5642C32.5434 15.5642 32.4424 15.7663 32.4424 15.7663C32.4424 15.9685 32.5434 15.6653 32.6445 15.5642ZM32.8466 15.0589L33.1498 14.9578C32.9477 14.7557 32.8466 14.9578 32.8466 15.0589Z" fill="#EA6852"/>
<path d="M45.8842 10.8141C45.8842 5.15437 50.0279 0.505311 55.8898 0.505311C59.5282 0.505311 61.6506 1.81918 63.5709 3.63837L62.0549 5.25544C60.3367 3.63837 58.5175 2.52664 55.7887 2.52664C51.4429 2.52664 48.1077 6.06397 48.1077 10.612V10.713C48.1077 15.261 51.4429 18.8994 55.7887 18.8994C58.5175 18.8994 60.3367 17.8888 62.1559 16.0696L63.6719 17.4845C61.6506 19.6069 59.3261 20.9208 55.7887 20.9208C50.129 21.0218 45.8842 16.4738 45.8842 10.8141Z" fill="#624B78"/>
<path d="M64.2783 13.4418C64.2783 9.29809 67.5125 5.76076 71.9594 5.76076C76.3052 5.76076 79.5394 9.19702 79.5394 13.3407V13.4418C79.5394 17.5855 76.3052 21.1229 71.8583 21.1229C67.5125 21.0218 64.2783 17.5855 64.2783 13.4418ZM77.3159 13.4418C77.3159 10.2077 74.9914 7.68102 71.8583 7.68102C68.7253 7.68102 66.5018 10.2077 66.5018 13.3407V13.4418C66.5018 16.5749 68.8263 19.1015 71.8583 19.1015C75.0924 19.0005 77.3159 16.4738 77.3159 13.4418Z" fill="#624B78"/>
<path d="M81.4596 6.06396H83.6831V8.48956C84.6937 7.07462 85.9065 5.76076 88.4332 5.76076C90.8588 5.76076 92.3748 7.07463 93.0822 8.69169C94.0929 7.07463 95.71 5.76076 98.2366 5.76076C101.572 5.76076 103.694 7.98422 103.694 11.6226V20.7186H101.471V12.128C101.471 9.29809 100.056 7.68102 97.6302 7.68102C95.4068 7.68102 93.5876 9.29809 93.5876 12.229V20.6175H91.3641V12.0269C91.3641 9.29809 89.9492 7.68102 87.6247 7.68102C85.3001 7.68102 83.582 9.60129 83.582 12.3301V20.7186H81.3585V6.06396H81.4596Z" fill="#624B78"/>
<path d="M106.423 6.06396H108.647V8.99489C109.859 7.27676 111.577 5.76076 114.205 5.76076C117.743 5.76076 121.179 8.48956 121.179 13.3407V13.4418C121.179 18.1919 117.743 21.0218 114.205 21.0218C111.476 21.0218 109.758 19.5058 108.647 17.8887V25.2666H106.423V6.06396ZM118.955 13.3407C118.955 9.80342 116.53 7.57996 113.801 7.57996C111.072 7.57996 108.545 9.90449 108.545 13.2397V13.3407C108.545 16.777 111.072 19.0005 113.801 19.0005C116.631 19.0005 118.955 16.8781 118.955 13.3407Z" fill="#624B78"/>
<path d="M123.2 0.808582H125.424V9.60137H136.844V0.808582H139.068V20.6176H136.844V11.7238H125.424V20.6176H123.2V0.808582Z" fill="#624B78"/>
<path d="M140.988 13.3408C140.988 9.09597 143.919 5.65971 147.961 5.65971C152.307 5.65971 154.733 9.09597 154.733 13.3408C154.733 13.644 154.733 13.745 154.733 14.0482H143.11C143.413 17.1813 145.637 19.0005 148.265 19.0005C150.286 19.0005 151.701 18.192 152.914 16.9792L154.228 18.192C152.712 19.809 150.993 20.9208 148.164 20.9208C144.222 21.0218 140.988 17.8888 140.988 13.3408ZM152.61 12.5322C152.408 9.9045 150.892 7.57997 147.961 7.57997C145.435 7.57997 143.514 9.70237 143.211 12.5322H152.61Z" fill="#624B78"/>
<path d="M156.047 16.3728C156.047 13.2397 158.573 11.6227 162.313 11.6227C164.132 11.6227 165.547 11.9259 166.861 12.2291V11.7237C166.861 9.096 165.244 7.78213 162.515 7.78213C160.797 7.78213 159.382 8.1864 158.068 8.89387L157.361 7.07467C158.978 6.3672 160.595 5.86187 162.717 5.86187C164.738 5.86187 166.356 6.3672 167.467 7.47894C168.478 8.4896 168.983 9.90453 168.983 11.7237V20.6176H166.861V18.3941C165.85 19.708 164.132 20.9208 161.605 20.9208C158.776 20.9208 156.047 19.4048 156.047 16.3728ZM166.861 15.2611V13.8461C165.749 13.5429 164.334 13.2397 162.515 13.2397C159.786 13.2397 158.27 14.4525 158.27 16.2717V16.3728C158.27 18.192 159.988 19.3037 161.909 19.3037C164.637 19.2027 166.861 17.5856 166.861 15.2611Z" fill="#624B78"/>
<path d="M171.106 0H173.329V20.6176H171.106V0Z" fill="#624B78"/>
<path d="M177.372 16.777V7.98423H175.35V6.06397H177.372V1.61704H179.595V6.06397H184.244V7.98423H179.595V16.5749C179.595 18.3941 180.606 19.0005 182.021 19.0005C182.728 19.0005 183.335 18.8994 184.143 18.4952V20.3144C183.335 20.7186 182.526 20.9207 181.516 20.9207C179.191 20.9207 177.372 19.708 177.372 16.777Z" fill="#624B78"/>
<path d="M186.165 0H188.388V8.59065C189.399 6.97359 190.915 5.76079 193.441 5.76079C196.979 5.76079 199 8.18639 199 11.6227V20.7186H196.777V12.128C196.777 9.39919 195.261 7.68106 192.734 7.68106C190.207 7.68106 188.388 9.50025 188.388 12.2291V20.6176H186.165V0Z" fill="#624B78"/>
</svg>
