<svg width="200" height="31" viewBox="0 0 200 31" fill="none" xmlns="http://www.w3.org/2000/svg">
<path d="M70.0308 24.1231H67.5693L62.5231 10.5846L57.477 24.1231H55.0154L46.5231 1.23077L49.1077 0L56.2462 20.0615L61.0462 7.01539L58.9539 1.47692L61.5385 0L68.8 19.9385L75.8154 0H78.7693L70.0308 24.1231Z" fill="#DB0032"/>
<path d="M8.86154 0H11.3231L16.3692 13.5385L21.4154 0H23.8769L32.3692 22.8923L29.7846 24.1231L22.5231 4.06154L17.7231 17.1077L19.8154 22.6462L17.2308 24.1231L9.96923 4.18462L2.95385 24.1231H0L8.86154 0Z" fill="#74C9BA"/>
<path d="M84.923 24.3692C80.2461 24.3692 77.4154 21.0461 77.4154 15.7538C77.4154 10.7077 80.3692 7.13843 84.6769 7.13843C88.8615 7.13843 91.4461 10.3384 91.4461 15.5077V16.2461H80.2461C80.3692 19.9384 82.2153 22.0307 85.1692 22.0307C87.0153 22.0307 88.8615 21.2923 90.7076 19.6923L91.0769 19.4461L91.5692 22.0307L91.4461 22.1538C89.4769 23.6307 87.2615 24.3692 84.923 24.3692ZM80.3692 13.9077H88.6153C88.2461 11.0769 86.8923 9.35382 84.6769 9.35382C82.3384 9.35382 80.8615 11.0769 80.3692 13.9077Z" fill="#DB0032"/>
<path d="M99.2 24.3693C96.1231 24.3693 94.1539 22.6462 94.1539 19.6924C94.1539 15.877 97.1077 13.9078 104.492 13.1693V12.3078C104.492 10.4616 103.508 9.47699 101.415 9.47699C99.6923 9.47699 97.9693 9.9693 96 10.8308L95.6308 11.077L95.2616 8.61545L95.3847 8.49238C96.9847 7.75391 98.9539 7.01545 101.538 7.01545C105.231 7.01545 107.2 8.86161 107.2 12.1847V23.877H104.738V21.9078C103.015 23.6308 101.169 24.3693 99.2 24.3693ZM104.492 15.5078C97.7231 16.2462 96.8616 17.9693 96.8616 19.5693C96.8616 21.0462 97.8462 21.9078 99.5693 21.9078C101.169 21.9078 103.015 21.0462 104.492 19.5693V15.5078Z" fill="#DB0032"/>
<path d="M116.923 24.3692C113.969 24.3692 112.492 23.0154 112.492 20.1846V9.84613H110.031V7.38459H112.492V1.23074L115.2 0.738433V7.38459H118.892L119.261 9.84613H115.2V19.8154C115.2 21.4154 115.815 21.9077 117.292 21.9077C117.785 21.9077 118.523 21.7846 118.769 21.7846H119.015L119.385 24.1231H119.138C119.015 24.1231 118.154 24.3692 116.923 24.3692Z" fill="#DB0032"/>
<path d="M136.123 24H133.415V12.6769C133.415 10.5846 132.431 9.59997 130.708 9.59997C129.231 9.59997 127.631 10.4615 125.785 12.3077V24.123H123.077V1.23074L125.785 0.738433V9.4769C127.138 8.3692 128.985 7.13843 131.2 7.13843C134.4 7.13843 136.246 8.98459 136.246 12.3077V24H136.123Z" fill="#DB0032"/>
<path d="M147.323 24.3692C142.646 24.3692 139.815 21.0461 139.815 15.7538C139.815 10.7077 142.769 7.13843 147.077 7.13843C151.262 7.13843 153.846 10.3384 153.846 15.5077V16.2461H142.646C142.769 19.9384 144.615 22.0307 147.569 22.0307C149.415 22.0307 151.262 21.2923 153.108 19.6923L153.477 19.4461L153.969 22.0307L153.846 22.1538C151.754 23.6307 149.662 24.3692 147.323 24.3692ZM142.646 13.9077H150.892C150.523 11.0769 149.169 9.35382 146.954 9.35382C144.739 9.35382 143.139 11.0769 142.646 13.9077Z" fill="#DB0032"/>
<path d="M160.246 24H157.538V7.38459H160.123L160 10.3384C161.108 8.73843 162.954 7.13843 165.538 7.13843H165.785L166.277 9.72305H166.031C163.323 9.84613 161.231 11.8154 160.246 13.7846V24Z" fill="#DB0032"/>
<path d="M175.385 24.2461C172.923 24.2461 170.954 23.7538 169.477 23.1384H169.354V1.23074L172.062 0.738433V9.23074C173.539 7.75382 175.015 7.13844 176.862 7.13844C180.923 7.13844 183.631 10.3384 183.631 15.3846C183.385 20.9231 180.431 24.2461 175.385 24.2461ZM171.939 21.2923C173.046 21.6615 174.031 21.9077 175.385 21.9077C178.708 21.9077 180.554 19.5692 180.554 15.5077C180.554 11.9384 178.954 9.72305 176.369 9.72305C174.892 9.72305 173.415 10.5846 171.815 12.4307V21.2923H171.939Z" fill="#DB0032"/>
<path d="M187.815 30.1538C187.569 30.1538 187.323 30.1538 187.077 30.0308H186.708L186.338 27.5692L186.708 27.6923C186.954 27.6923 187.446 27.8154 187.938 27.8154C189.169 27.8154 189.908 27.3231 190.4 25.8461L191.138 24L184.985 7.75384L187.692 7.26154L192.492 20.5538L197.169 7.38461H200L193.108 25.8461C191.877 29.0461 190.523 30.1538 187.815 30.1538Z" fill="#DB0032"/>
<path d="M39.7539 25.1077C38.4 28.9231 36.677 29.9077 33.9693 29.9077C33.6 29.9077 33.2308 29.7846 32.8616 29.7846L32.4923 27.0769C32.9846 27.2 33.6 27.3231 34.2154 27.3231C35.4462 27.3231 36.3077 26.7077 36.8 25.4769L37.4154 23.7538L31.5077 7.75384L34.4616 7.26154L38.8923 20.1846L43.2 7.50769H46.277L39.7539 25.1077Z" fill="#74C9BA"/>
</svg>
