<svg width="200" height="24" viewBox="0 0 200 24" fill="none" xmlns="http://www.w3.org/2000/svg">
<path d="M95.2313 20.4454H92.8438V12.1594H84.1365V20.4454H81.7958V2.32852H84.1365V10.0059H92.8438V2.32852H95.2313V20.4454Z" fill="#3D3935"/>
<path d="M103.751 20.6794C102.815 20.6794 101.972 20.4922 101.223 20.1176C100.474 19.7431 99.819 19.2282 99.304 18.5728C98.7891 17.9174 98.3678 17.1684 98.0869 16.3258C97.806 15.4831 97.6656 14.5937 97.6656 13.6574C97.6656 12.8147 97.806 11.9253 98.0869 11.1763C98.3678 10.3804 98.7891 9.67823 99.304 9.06966C99.819 8.46108 100.474 7.99295 101.223 7.61844C101.972 7.24393 102.815 7.05668 103.705 7.05668C104.594 7.05668 105.39 7.19712 106.139 7.52481C106.888 7.85251 107.496 8.32064 107.965 8.8824C108.479 9.44416 108.854 10.1464 109.135 10.8954C109.416 11.6912 109.556 12.5339 109.556 13.4233V14.4064H100.147C100.193 14.8745 100.287 15.3427 100.428 15.8108C100.615 16.3258 100.896 16.7939 101.223 17.2152C101.551 17.5897 101.926 17.9642 102.347 18.1983C102.768 18.4324 103.236 18.5728 103.751 18.5728C105.483 18.5728 106.56 17.777 107.122 16.1853L107.169 16.0449H109.369L109.322 16.3258C109.182 17.028 108.901 17.6365 108.573 18.1983C108.199 18.7601 107.777 19.1814 107.309 19.5559C106.841 19.9304 106.279 20.2113 105.671 20.3985C105.062 20.5858 104.407 20.7262 103.751 20.6794ZM100.147 12.5339H107.122C107.075 12.1125 106.981 11.738 106.841 11.3635C106.701 10.9422 106.42 10.5677 106.139 10.24C105.858 9.9123 105.483 9.67823 105.062 9.49098C104.266 9.16329 103.143 9.11647 102.253 9.49098C101.832 9.67823 101.457 9.95911 101.177 10.2868C100.849 10.6145 100.615 10.989 100.428 11.4103C100.287 11.7848 100.193 12.1593 100.147 12.5339Z" fill="#3D3935"/>
<path d="M121.962 20.6794C121.353 20.6794 120.838 20.4454 120.464 20.024C120.183 19.6963 119.949 19.2282 119.855 18.6196C119.574 18.9473 119.293 19.2282 119.013 19.4623C118.591 19.79 118.217 20.0708 117.795 20.2581C117.374 20.4454 116.953 20.5858 116.578 20.6326C115.642 20.7731 114.612 20.7731 113.816 20.4454C113.348 20.2581 112.88 20.024 112.552 19.6963C112.178 19.3686 111.897 18.9473 111.71 18.4792C111.476 18.0111 111.382 17.4961 111.382 16.9343C111.382 16.3726 111.522 15.8576 111.756 15.4363C111.99 15.015 112.365 14.6873 112.786 14.3596C113.208 14.0787 113.629 13.8447 114.191 13.6574C114.706 13.4701 115.221 13.2829 115.736 13.1425C116.251 13.002 116.765 12.8616 117.234 12.7211C117.702 12.5807 118.17 12.4402 118.544 12.2998C118.919 12.1594 119.2 11.9721 119.387 11.7849C119.574 11.5976 119.668 11.4103 119.668 11.1763C119.668 10.5209 119.434 10.0528 118.966 9.77188C118.451 9.44418 117.749 9.30374 116.859 9.30374C116.485 9.30374 116.157 9.35056 115.829 9.39737C115.501 9.44418 115.267 9.58462 115.033 9.72506C114.799 9.8655 114.612 10.0528 114.472 10.2868C114.331 10.5209 114.238 10.755 114.191 11.0827L114.144 11.2699H111.71V10.989C111.756 10.3336 111.944 9.72506 112.271 9.25693C112.599 8.78879 113.02 8.36747 113.489 8.03978C113.957 7.71208 114.518 7.47802 115.127 7.33758C116.344 7.00988 117.608 7.0567 118.778 7.33758C119.387 7.47802 119.949 7.71208 120.417 8.03978C120.885 8.36747 121.306 8.78879 121.587 9.30374C121.868 9.81869 122.055 10.4273 122.055 11.1295V17.777C122.055 17.8706 122.055 17.9642 122.102 18.1047C122.149 18.1983 122.196 18.2919 122.243 18.3856C122.289 18.4792 122.383 18.526 122.477 18.5728C122.617 18.6664 122.758 18.6664 122.945 18.6196C123.038 18.6196 123.132 18.5728 123.273 18.526L123.6 18.4324V20.4922L123.413 20.539C123.132 20.6326 122.898 20.6794 122.711 20.7262C122.43 20.6794 122.196 20.6794 121.962 20.6794ZM119.621 13.6106C119.434 13.751 119.2 13.8915 118.966 13.9851C118.544 14.1723 118.076 14.3596 117.608 14.5C117.14 14.6405 116.672 14.7809 116.157 14.9214C115.689 15.0618 115.267 15.2022 114.893 15.3895C114.518 15.5768 114.238 15.764 114.003 15.9981C113.816 16.2321 113.676 16.513 113.676 16.8407C113.676 17.1684 113.723 17.4493 113.816 17.6834C113.91 17.9174 114.05 18.0579 114.238 18.2451C114.425 18.3856 114.612 18.4792 114.846 18.5728C115.782 18.8537 116.812 18.6196 117.702 18.0111C118.404 17.5897 119.012 16.8875 119.574 15.9981L119.621 13.6106Z" fill="#3D3935"/>
<path d="M128.048 2.23492H125.707V20.3986H128.048V2.23492Z" fill="#3D3935"/>
<path d="M135.631 20.6794C135.257 20.6794 134.929 20.6326 134.601 20.539C134.274 20.4453 133.946 20.3049 133.712 20.0708C133.478 19.8368 133.244 19.5559 133.103 19.2282C132.963 18.9005 132.869 18.4792 132.869 18.011V9.39735H130.248V7.29075H132.869V3.54567H135.21V7.29075H137.832V9.39735H135.21V17.3556C135.21 17.5897 135.257 17.8238 135.304 17.9642C135.35 18.1047 135.444 18.2451 135.538 18.3387C135.631 18.4324 135.772 18.4792 135.865 18.526C136.099 18.6196 136.427 18.6196 136.708 18.5728C136.848 18.5728 136.989 18.526 137.176 18.4792L137.457 18.3855V20.3985L137.27 20.4453C137.036 20.539 136.755 20.5858 136.474 20.5858C136.193 20.6794 135.912 20.6794 135.631 20.6794Z" fill="#3D3935"/>
<path d="M150.893 20.4454H148.552V11.4572C148.552 11.0359 148.505 10.7082 148.365 10.4273C148.224 10.1464 148.037 9.91234 147.85 9.7719C147.616 9.58464 147.382 9.44421 147.054 9.39739C146.352 9.21014 145.603 9.21014 144.854 9.53783C144.432 9.72508 144.058 9.95915 143.73 10.24C143.402 10.5209 143.122 10.8954 142.934 11.2699C142.747 11.6444 142.607 12.1126 142.607 12.5339V20.4454H140.266V2.23492H142.607V8.60156C142.747 8.46112 142.887 8.27387 143.075 8.18024C143.402 7.89936 143.777 7.71211 144.105 7.52485C144.479 7.38441 144.854 7.24397 145.275 7.15034C146.258 6.96309 147.382 7.0099 148.271 7.3376C148.786 7.52485 149.254 7.80573 149.675 8.18024C150.05 8.55475 150.378 8.97607 150.565 9.49102C150.752 10.006 150.893 10.5209 150.893 11.0827V20.4454Z" fill="#3D3935"/>
<path d="M159.085 20.7262C158.43 20.7262 157.821 20.6326 157.306 20.4453C156.791 20.2581 156.276 19.9772 155.855 19.6495C155.433 19.3218 155.059 18.9005 154.778 18.4324C154.45 17.9642 154.216 17.4961 154.029 16.9811C153.842 16.4662 153.701 15.9044 153.608 15.3427C153.514 14.7809 153.467 14.2191 153.467 13.6574C153.467 12.7211 153.608 11.8785 153.889 11.0826C154.17 10.2868 154.544 9.58461 155.059 8.97603C155.574 8.36746 156.182 7.89932 156.885 7.57163C157.587 7.24393 158.43 7.05668 159.272 7.05668C160.021 7.05668 160.723 7.1503 161.332 7.38437C161.941 7.61844 162.456 7.89932 162.924 8.27383C163.392 8.64834 163.719 9.11647 164 9.63142C164.281 10.1464 164.468 10.7081 164.609 11.3167L164.656 11.5976H162.175L162.128 11.4103C162.034 10.989 161.847 10.6145 161.66 10.3336C161.472 10.0527 161.285 9.81868 161.051 9.63142C160.817 9.44417 160.536 9.30373 160.255 9.25691C159.928 9.16329 159.6 9.11647 159.225 9.11647C158.664 9.11647 158.195 9.2101 157.774 9.49098C157.353 9.72505 156.978 10.0527 156.697 10.4272C156.417 10.8486 156.183 11.3167 155.995 11.8317C155.855 12.3934 155.761 12.9552 155.761 13.5638C155.761 14.1723 155.855 14.8277 155.995 15.3895C156.136 15.9512 156.37 16.513 156.697 16.9811C156.978 17.4493 157.353 17.8238 157.774 18.0579C158.195 18.3387 158.664 18.4792 159.179 18.4792C159.6 18.4792 159.974 18.3855 160.302 18.2451C160.63 18.1047 160.911 17.8706 161.145 17.6365C161.379 17.3556 161.613 17.0748 161.753 16.7471C161.894 16.4194 162.034 15.9981 162.128 15.6235L162.175 15.4363H164.703L164.656 15.7172C164.562 16.4662 164.375 17.1684 164.094 17.777C163.813 18.3855 163.392 18.9005 162.924 19.3218C162.456 19.7431 161.894 20.0708 161.238 20.3049C160.583 20.6326 159.834 20.7262 159.085 20.7262Z" fill="#3D3935"/>
<path d="M177.014 20.6794C176.406 20.6794 175.891 20.4454 175.516 20.024C175.236 19.6963 175.001 19.2282 174.908 18.6196C174.627 18.9473 174.346 19.2282 174.065 19.4623C173.644 19.79 173.269 20.0708 172.848 20.2581C172.427 20.4454 172.005 20.5858 171.631 20.6326C170.695 20.7731 169.665 20.7731 168.822 20.4454C168.354 20.2581 167.886 20.024 167.558 19.6963C167.184 19.3686 166.903 18.9473 166.715 18.4792C166.528 18.0111 166.388 17.4961 166.388 16.9343C166.388 16.3726 166.528 15.8576 166.762 15.4363C166.996 15.015 167.371 14.6873 167.745 14.3596C168.167 14.0787 168.588 13.8447 169.15 13.6574C169.665 13.4701 170.18 13.2829 170.695 13.1425C171.21 13.002 171.725 12.8616 172.193 12.7211C172.661 12.5807 173.129 12.4402 173.503 12.2998C173.878 12.1594 174.159 11.9721 174.346 11.7849C174.533 11.5976 174.627 11.4103 174.627 11.1763C174.627 10.5209 174.393 10.0528 173.925 9.77188C173.41 9.44418 172.708 9.30374 171.818 9.30374C171.444 9.30374 171.116 9.35056 170.788 9.39737C170.461 9.491 170.226 9.58462 169.992 9.72506C169.758 9.8655 169.571 10.0528 169.431 10.2868C169.29 10.5209 169.197 10.755 169.15 11.0827L169.103 11.2699H166.669V10.989C166.715 10.3336 166.903 9.72506 167.23 9.25693C167.558 8.78879 167.979 8.36747 168.448 8.03978C168.916 7.71208 169.477 7.47802 170.086 7.33758C171.303 7.00988 172.567 7.0567 173.738 7.33758C174.346 7.47802 174.908 7.71208 175.376 8.03978C175.844 8.36747 176.265 8.78879 176.546 9.30374C176.827 9.81869 177.014 10.4273 177.014 11.1295V17.777C177.014 17.8706 177.014 17.9642 177.061 18.1047C177.108 18.1983 177.155 18.2919 177.202 18.3856C177.249 18.4792 177.342 18.526 177.436 18.5728C177.576 18.6664 177.717 18.6664 177.904 18.6196C177.998 18.6196 178.091 18.5728 178.232 18.526L178.559 18.4324V20.4922L178.372 20.539C178.091 20.6326 177.857 20.6794 177.67 20.7262C177.483 20.6794 177.249 20.6794 177.014 20.6794ZM174.674 13.6106C174.487 13.751 174.252 13.8915 174.018 13.9851C173.597 14.1723 173.129 14.3596 172.661 14.5C172.193 14.6405 171.725 14.7809 171.21 14.9214C170.741 15.0618 170.32 15.2022 169.946 15.3895C169.571 15.5768 169.29 15.764 169.056 15.9981C168.869 16.2321 168.775 16.513 168.775 16.8407C168.775 17.1684 168.822 17.4493 168.916 17.6834C169.009 17.9174 169.15 18.0579 169.337 18.2451C169.524 18.3856 169.712 18.4792 169.946 18.5728C170.882 18.8537 171.912 18.6196 172.801 18.0111C173.503 17.5897 174.112 16.8875 174.674 15.9981V13.6106Z" fill="#3D3935"/>
<path d="M183.287 20.4453H180.947V7.29075H183.194V8.83559C183.475 8.36745 183.802 8.03976 184.177 7.75888C184.785 7.29075 185.441 7.05668 186.237 7.05668C186.377 7.05668 186.564 7.05668 186.705 7.10349C186.892 7.15031 187.033 7.19712 187.173 7.24393L187.313 7.29075V9.72505L186.986 9.63142C186.518 9.49098 186.284 9.44417 186.143 9.44417C185.675 9.44417 185.3 9.53779 184.926 9.72505C184.551 9.9123 184.271 10.1464 184.036 10.4272C183.802 10.7081 183.615 11.0358 183.475 11.4103C183.334 11.7848 183.287 12.2062 183.287 12.6275V20.4453Z" fill="#3D3935"/>
<path d="M194.195 20.6794C193.259 20.6794 192.416 20.4922 191.667 20.1176C190.918 19.7431 190.263 19.2282 189.748 18.5728C189.233 17.9174 188.812 17.1684 188.531 16.3258C188.25 15.4831 188.109 14.5937 188.109 13.6574C188.109 12.8147 188.25 11.9253 188.531 11.1763C188.812 10.3804 189.233 9.67823 189.748 9.06966C190.263 8.46108 190.918 7.99295 191.667 7.61844C192.416 7.24393 193.259 7.05668 194.148 7.05668C195.038 7.05668 195.834 7.19712 196.583 7.52481C197.332 7.85251 197.94 8.32064 198.408 8.8824C198.923 9.44416 199.298 10.1464 199.579 10.8954C199.86 11.6912 200 12.5339 200 13.4233V14.4064H190.59C190.637 14.8745 190.731 15.3427 190.871 15.8108C191.059 16.3258 191.339 16.7939 191.667 17.2152C191.995 17.5897 192.369 17.9642 192.791 18.1983C193.212 18.4324 193.68 18.5728 194.195 18.5728C195.927 18.5728 197.004 17.777 197.566 16.1853L197.612 16.0449H199.813L199.766 16.3258C199.625 17.028 199.391 17.6365 199.017 18.1983C198.642 18.7601 198.221 19.1814 197.753 19.5559C197.285 19.9304 196.723 20.2113 196.114 20.3985C195.506 20.5858 194.85 20.7262 194.195 20.6794ZM190.637 12.5339H197.566C197.519 12.1125 197.425 11.738 197.285 11.3635C197.144 10.9422 196.863 10.5677 196.583 10.24C196.302 9.9123 195.927 9.67823 195.506 9.49098C194.71 9.16329 193.587 9.11647 192.697 9.49098C192.276 9.67823 191.901 9.95911 191.62 10.2868C191.293 10.6145 191.059 10.989 190.871 11.4103C190.731 11.7848 190.637 12.1593 190.637 12.5339Z" fill="#3D3935"/>
<path d="M57.4539 23.3629C50.7385 23.3629 45.4867 18.2546 45.4867 11.7401V11.6827C45.4867 5.34043 50.9394 0.00255394 57.4252 0.00255394C62.4187 0.00255394 64.5997 2.06883 66.6947 4.04901L67.24 4.56557L63.8536 8.03806L63.624 7.75108C61.7873 5.48392 60.2376 4.73776 57.2817 4.73776C54.0675 4.73776 50.4515 7.69368 50.4515 11.654V11.7114C50.4515 15.6144 53.637 18.6851 57.7122 18.6851C60.008 18.6851 61.3568 17.8529 62.4474 16.9345L62.4761 15.2987H57.9704L58.0278 11.0227H67.2113V18.8286L67.1252 18.9147C65.1737 20.981 63.0213 23.3629 57.4539 23.3629Z" fill="#00A7E1"/>
<path d="M11.6515 23.3629C5.45266 23.3629 0 18.0251 0 11.9123V11.8549C0 5.19694 5.10828 0.088659 11.8811 0.00256429C16.645 -0.0835304 19.2852 2.01144 21.4376 4.3073L21.6385 4.53689L18.2234 8.06677L17.9938 7.75109C16.358 5.62742 14.4065 4.65168 11.8237 4.65168C8.17899 4.65168 4.99349 7.98067 4.99349 11.7688V11.8549C4.99349 15.4422 8.23639 18.6851 11.8237 18.6851C15.1814 18.6851 16.4728 17.2502 17.9938 15.557L18.3095 15.1839L21.7533 18.6851L21.5237 18.9147C19.3713 21.268 16.9607 23.3629 11.6515 23.3629Z" fill="#FF8300"/>
<path d="M68.0148 21.1245C68.0148 20.0052 68.9045 19.0869 70.0524 19.0869C71.2003 19.0869 72.0613 20.0052 72.0613 21.0958C72.0613 22.1863 71.1716 23.1333 70.0237 23.1333C68.8758 23.1333 68.0148 22.2437 68.0148 21.1245ZM71.8604 21.1245C71.8604 20.12 71.0855 19.2878 70.0524 19.2878C69.0193 19.2878 68.2444 20.12 68.2444 21.1245C68.2444 22.1289 69.0193 22.9324 70.0524 22.9324C71.0855 22.9324 71.8604 22.1289 71.8604 21.1245ZM69.2489 20.0052H70.1959C70.4829 20.0052 70.6838 20.0913 70.8273 20.2348C70.942 20.3496 70.9994 20.4931 70.9994 20.6653C70.9994 21.0097 70.7986 21.2106 70.5116 21.2966L71.0855 22.1002H70.5977L70.0811 21.354H69.6506V22.1002H69.2489C69.2489 22.1289 69.2489 20.0052 69.2489 20.0052ZM70.1672 21.0384C70.4255 21.0384 70.5977 20.9236 70.5977 20.694C70.5977 20.4931 70.4542 20.3496 70.1672 20.3496H69.6506V21.0097C69.6506 21.0384 70.1672 21.0384 70.1672 21.0384Z" fill="#3D3935"/>
<path d="M43.1335 22.9612H38.1687V13.4907H28.8704V22.9612H23.963V0.37565H28.8704V8.84163H38.1687V0.37565H43.1335V22.9612Z" fill="#80BC00"/>
</svg>
